<svg xmlns="http://www.w3.org/2000/svg" xmlns:xlink="http://www.w3.org/1999/xlink" width="160.015" height="52" viewBox="0 0 160.015 52">
  <defs>
    <radialGradient id="radial-gradient" cx="0.5" cy="0.5" r="0.5" gradientTransform="translate(0)" gradientUnits="objectBoundingBox">
      <stop offset="0.011" stop-color="#d22630" stop-opacity="0.8"/>
      <stop offset="0.458" stop-color="#d22630" stop-opacity="0.878"/>
      <stop offset="0.995" stop-color="#d22630"/>
    </radialGradient>
    <linearGradient id="linear-gradient" x1="0.061" y1="-0.105" x2="0.776" y2="0.88" gradientUnits="objectBoundingBox">
      <stop offset="0" stop-color="#fff"/>
      <stop offset="0.103" stop-color="#f3f1f1"/>
      <stop offset="0.296" stop-color="#d3cfcd"/>
      <stop offset="0.558" stop-color="#a09693"/>
      <stop offset="0.876" stop-color="#5a4a44"/>
      <stop offset="0.995" stop-color="#3f2c25"/>
    </linearGradient>
    <radialGradient id="radial-gradient-2" cx="0.433" cy="0.34" r="0.627" gradientTransform="matrix(0.994, 0.112, -0.112, 0.994, 0.047, -0.047)" gradientUnits="objectBoundingBox">
      <stop offset="0.011" stop-color="#c11c06" stop-opacity="0.8"/>
      <stop offset="0.494" stop-color="#c11c06" stop-opacity="0.886"/>
      <stop offset="1" stop-color="#c11c06"/>
    </radialGradient>
    <linearGradient id="linear-gradient-2" x1="-0.565" y1="-1.464" x2="0.045" y2="-0.382" gradientUnits="objectBoundingBox">
      <stop offset="0" stop-color="#fff"/>
      <stop offset="0.113" stop-color="#f0eeee"/>
      <stop offset="0.336" stop-color="#c9c4c2"/>
      <stop offset="0.647" stop-color="#8c807c"/>
      <stop offset="1" stop-color="#3f2c25"/>
    </linearGradient>
  </defs>
  <path id="Path_2005" data-name="Path 2005" d="M9.195-10.5,5.385-1.875,1.605-10.5H-.015L4.605,0H6.09l4.605-10.5Zm7.77-.555h-1.83L13.095-9.1h1.35Zm-2.85,3.03a5.294,5.294,0,0,0-3.285,1.02l.6,1.08a4.02,4.02,0,0,1,2.52-.855c1.425,0,2.13.7,2.13,1.92v.285H13.8c-2.37,0-3.195,1.05-3.195,2.325,0,1.38,1.14,2.34,2.94,2.34a2.951,2.951,0,0,0,2.61-1.14V0H17.52V-4.8C17.52-6.975,16.29-8.025,14.115-8.025Zm-.33,7.005c-1.1,0-1.755-.5-1.755-1.29,0-.675.4-1.23,1.83-1.23h2.22v1.11A2.306,2.306,0,0,1,13.785-1.02ZM20.19,0h1.44V-11.13H20.19Zm4.185,0h1.44V-11.13h-1.44Zm7.08-8.025a5.294,5.294,0,0,0-3.285,1.02l.6,1.08a4.02,4.02,0,0,1,2.52-.855c1.425,0,2.13.7,2.13,1.92v.285H31.14c-2.37,0-3.195,1.05-3.195,2.325,0,1.38,1.14,2.34,2.94,2.34a2.951,2.951,0,0,0,2.61-1.14V0H34.86V-4.8C34.86-6.975,33.63-8.025,31.455-8.025Zm-.33,7.005c-1.1,0-1.755-.5-1.755-1.29,0-.675.405-1.23,1.83-1.23h2.22v1.11A2.306,2.306,0,0,1,31.125-1.02ZM37.53,0h1.44V-11.13H37.53Zm7.08-8.025a5.294,5.294,0,0,0-3.285,1.02l.6,1.08a4.02,4.02,0,0,1,2.52-.855c1.425,0,2.13.7,2.13,1.92v.285h-2.28c-2.37,0-3.195,1.05-3.195,2.325C41.1-.87,42.24.09,44.04.09a2.951,2.951,0,0,0,2.61-1.14V0h1.365V-4.8C48.015-6.975,46.785-8.025,44.61-8.025ZM44.28-1.02c-1.1,0-1.755-.5-1.755-1.29,0-.675.405-1.23,1.83-1.23h2.22v1.11A2.306,2.306,0,0,1,44.28-1.02ZM54.7-1.5a1.814,1.814,0,0,1-1.125.375A1.171,1.171,0,0,1,52.335-2.46v-4.3h2.28V-7.95h-2.28V-9.69H50.9v1.74h-1.35v1.185H50.9V-2.4A2.269,2.269,0,0,0,53.415.09a2.716,2.716,0,0,0,1.74-.555Zm2.91-7.98a.942.942,0,0,0,.975-.96.933.933,0,0,0-.975-.915.948.948,0,0,0-.975.945A.936.936,0,0,0,57.615-9.48ZM56.9,0h1.44V-7.95H56.9ZM69.36-8.025A3.408,3.408,0,0,0,66.5-6.75v-1.2h-1.38V0h1.44V-4.1a2.361,2.361,0,0,1,2.52-2.64c1.365,0,2.145.765,2.145,2.325V0h1.44V-4.575C72.66-6.915,71.295-8.025,69.36-8.025Zm11.445.075L78.06-1.59,75.285-7.95h-1.5L77.3-.015,77.04.54c-.39.915-.825,1.23-1.515,1.23A2.034,2.034,0,0,1,74.1,1.185l-.615,1.08A2.985,2.985,0,0,0,75.525,3c1.215,0,2.13-.525,2.835-2.2L82.215-7.95Zm9.72,4.02a3.833,3.833,0,0,0-3.93-4.1,3.893,3.893,0,0,0-3.99,4.05A3.98,3.98,0,0,0,86.88.09,3.99,3.99,0,0,0,90.015-1.2l-.795-.93a2.968,2.968,0,0,1-2.3.96,2.693,2.693,0,0,1-2.88-2.325h6.45C90.51-3.63,90.525-3.81,90.525-3.93ZM86.6-6.81a2.479,2.479,0,0,1,2.55,2.28h-5.1A2.478,2.478,0,0,1,86.6-6.81ZM92.52,0h1.44V-11.13H92.52Zm9.81-7.95L99.54-1.575,96.81-7.95h-1.5L98.79,0h1.47l3.48-7.95ZM108.27.09a3.956,3.956,0,0,0,4.125-4.065,3.944,3.944,0,0,0-4.125-4.05,3.956,3.956,0,0,0-4.14,4.05A3.968,3.968,0,0,0,108.27.09Zm0-1.26a2.632,2.632,0,0,1-2.685-2.8,2.62,2.62,0,0,1,2.685-2.79,2.608,2.608,0,0,1,2.67,2.79A2.621,2.621,0,0,1,108.27-1.17ZM120.465,0h1.77L118.56-4.665,121.9-7.95h-1.74L115.83-3.99v-7.14h-1.44V0h1.44V-2.175l1.65-1.53Zm7.185-1.5a1.814,1.814,0,0,1-1.125.375A1.171,1.171,0,0,1,125.28-2.46v-4.3h2.28V-7.95h-2.28V-9.69h-1.44v1.74h-1.35v1.185h1.35V-2.4A2.269,2.269,0,0,0,126.36.09a2.716,2.716,0,0,0,1.74-.555Zm5.085-6.525a5.294,5.294,0,0,0-3.285,1.02l.6,1.08a4.02,4.02,0,0,1,2.52-.855c1.425,0,2.13.7,2.13,1.92v.285h-2.28c-2.37,0-3.2,1.05-3.2,2.325,0,1.38,1.14,2.34,2.94,2.34a2.951,2.951,0,0,0,2.61-1.14V0h1.365V-4.8C136.14-6.975,134.91-8.025,132.735-8.025ZM132.4-1.02c-1.095,0-1.755-.5-1.755-1.29,0-.675.4-1.23,1.83-1.23h2.22v1.11A2.306,2.306,0,0,1,132.4-1.02ZM142.83-1.5a1.813,1.813,0,0,1-1.125.375A1.171,1.171,0,0,1,140.46-2.46v-4.3h2.28V-7.95h-2.28V-9.69h-1.44v1.74h-1.35v1.185h1.35V-2.4A2.269,2.269,0,0,0,141.54.09a2.716,2.716,0,0,0,1.74-.555Zm7.935-9.555h-1.83L146.9-9.1h1.35Zm-2.85,3.03a5.294,5.294,0,0,0-3.285,1.02l.6,1.08a4.02,4.02,0,0,1,2.52-.855c1.425,0,2.13.7,2.13,1.92v.285H147.6c-2.37,0-3.2,1.05-3.2,2.325,0,1.38,1.14,2.34,2.94,2.34a2.951,2.951,0,0,0,2.61-1.14V0h1.365V-4.8C151.32-6.975,150.09-8.025,147.915-8.025Zm-.33,7.005c-1.095,0-1.755-.5-1.755-1.29,0-.675.4-1.23,1.83-1.23h2.22v1.11A2.306,2.306,0,0,1,147.585-1.02ZM156.27.09c2.115,0,3.435-.915,3.435-2.355,0-3.09-5.04-1.56-5.04-3.435,0-.63.615-1.1,1.875-1.1a4.152,4.152,0,0,1,2.3.63l.615-1.14a5.785,5.785,0,0,0-2.9-.72c-2.04,0-3.315.96-3.315,2.385,0,3.165,5.025,1.62,5.025,3.4,0,.675-.555,1.08-1.89,1.08a5.109,5.109,0,0,1-2.79-.825l-.6,1.14A5.738,5.738,0,0,0,156.27.09Z" transform="translate(0.015 49)" fill="#324153"/>
  <g id="Group_1927" data-name="Group 1927" transform="translate(0.015)">
    <path id="Path_1846" data-name="Path 1846" d="M185.4,246.149a31.271,31.271,0,0,1-10.159,1.779c-5.337,0-9.364-1.357-12.36-4.214a15.633,15.633,0,0,1-4.4-11.61c0-9.972,7.117-16.387,17.557-16.387a20.941,20.941,0,0,1,8.38,1.5l-1.264,4.635a16.993,16.993,0,0,0-7.163-1.358c-6.742,0-11.47,3.979-11.47,11.33,0,7.163,4.4,11.424,10.955,11.424a11.042,11.042,0,0,0,4.354-.655v-7.865h-5.571v-4.542H185.4Z" transform="translate(-158.476 -215.477)" fill="#324153"/>
    <path id="Path_1847" data-name="Path 1847" d="M265.432,216.816h5.758v26.733h12.968v4.822H265.432Z" transform="translate(-233.548 -216.249)" fill="#324153"/>
    <path id="Path_1848" data-name="Path 1848" d="M449.148,216.687a48.147,48.147,0,0,1,8.38-.655c4.26,0,6.881.515,9.035,2.013a6.655,6.655,0,0,1,3.277,5.9c0,2.9-1.826,5.571-5.244,6.835v.094a7.955,7.955,0,0,1,6.367,7.819,8.19,8.19,0,0,1-3.043,6.508c-2.247,1.966-5.946,2.949-11.7,2.949a55.9,55.9,0,0,1-7.069-.421Zm5.712,12.453h2.949c3.98,0,6.227-1.873,6.227-4.542,0-2.949-2.247-4.307-5.9-4.307a15.693,15.693,0,0,0-3.277.234Zm0,14.514a25.516,25.516,0,0,0,3.042.14c3.7,0,6.976-1.4,6.976-5.29,0-3.652-3.184-5.149-7.164-5.149H454.86Z" transform="translate(-362.499 -215.699)" fill="#324153"/>
    <path id="Path_1849" data-name="Path 1849" d="M539.877,216.816v18.4c0,6.181,2.575,9.036,6.461,9.036,4.167,0,6.648-2.856,6.648-9.036v-18.4h5.758v18.025c0,9.738-5.009,14.045-12.594,14.045-7.3,0-12.031-4.073-12.031-14V216.816Z" transform="translate(-422.14 -216.249)" fill="#324153"/>
    <path id="Path_1850" data-name="Path 1850" d="M627.685,240.885a15.932,15.932,0,0,0,7.631,2.014c3.7,0,5.759-1.732,5.759-4.307,0-2.387-1.591-3.792-5.618-5.243-5.2-1.873-8.521-4.635-8.521-9.176,0-5.15,4.307-9.083,11.142-9.083a16.671,16.671,0,0,1,7.585,1.592l-1.4,4.635a13.358,13.358,0,0,0-6.273-1.5c-3.652,0-5.244,1.967-5.244,3.792,0,2.435,1.826,3.558,6.04,5.2,5.478,2.06,8.146,4.822,8.146,9.364,0,5.055-3.839,9.457-11.985,9.457a18.729,18.729,0,0,1-8.521-1.967Z" transform="translate(-486.927 -215.037)" fill="#324153"/>
    <g id="Group_1877" data-name="Group 1877" transform="translate(50.61)">
      <path id="Path_1851" data-name="Path 1851" d="M360.759,233.038a16.3,16.3,0,1,1-14.386-18.021A16.3,16.3,0,0,1,360.759,233.038Z" transform="translate(-328.251 -214.914)" fill="url(#radial-gradient)"/>
      <path id="Path_1852" data-name="Path 1852" d="M357.383,223.737c1.556,4.319-1.636,9.426-7.127,11.4s-11.208.079-12.759-4.237,1.633-9.424,7.127-11.4S355.83,219.418,357.383,223.737Z" transform="translate(-334.464 -217.583)" fill="url(#linear-gradient)" style="mix-blend-mode: screen;isolation: isolate"/>
      <path id="Path_1853" data-name="Path 1853" d="M362.688,236.518a13.417,13.417,0,1,1-11.835-14.827A13.416,13.416,0,0,1,362.688,236.518Z" transform="translate(-333.645 -219.611)" opacity="0.1" fill="url(#radial-gradient-2)" style="mix-blend-mode: multiply;isolation: isolate"/>
      <g id="Group_1876" data-name="Group 1876" transform="translate(6.792 4.657)" opacity="0.3">
        <path id="Path_1854" data-name="Path 1854" d="M371.935,230.552c-6.64-.288-13.655,3.578-17.74,10.462a21.578,21.578,0,0,0-2.865,14.649,16.3,16.3,0,0,0,20.6-25.111Z" transform="translate(-351.034 -230.537)" fill="#c11c06"/>
      </g>
      <path id="Path_1855" data-name="Path 1855" d="M343.422,247.659c-6.331-4.568-9.466-11.717-8.6-18.137a15.888,15.888,0,1,0,22.572,22.2A20.973,20.973,0,0,1,343.422,247.659Z" transform="translate(-328.953 -225.167)" opacity="0.2" fill="url(#linear-gradient-2)" style="mix-blend-mode: screen;isolation: isolate"/>
    </g>
  </g>
</svg>