<svg id="Layer_1" data-name="Layer 1" xmlns="http://www.w3.org/2000/svg" xmlns:xlink="http://www.w3.org/1999/xlink" viewBox="0 0 259.39 152.67"><defs><style>.cls-1{fill:#868685;}.cls-2{fill:url(#New_Gradient_Swatch_3);}.cls-3{fill:url(#New_Gradient_Swatch_3-2);}.cls-4{fill:url(#New_Gradient_Swatch_3-3);}.cls-5{fill:url(#linear-gradient);}.cls-6{fill:url(#New_Gradient_Swatch_3-4);}</style><linearGradient id="New_Gradient_Swatch_3" x1="125.09" y1="57.17" x2="167.03" y2="57.17" gradientUnits="userSpaceOnUse"><stop offset="0" stop-color="#80ba31"/><stop offset="1" stop-color="#007f35"/></linearGradient><linearGradient id="New_Gradient_Swatch_3-2" x1="108.63" y1="37.97" x2="168.69" y2="37.97" xlink:href="#New_Gradient_Swatch_3"/><linearGradient id="New_Gradient_Swatch_3-3" x1="85.13" y1="47.88" x2="134.22" y2="47.88" xlink:href="#New_Gradient_Swatch_3"/><linearGradient id="linear-gradient" x1="118.86" y1="51.19" x2="129.6" y2="51.19" gradientUnits="userSpaceOnUse"><stop offset="0" stop-color="#007f35"/><stop offset="1" stop-color="#80ba31"/></linearGradient><linearGradient id="New_Gradient_Swatch_3-4" x1="130.7" y1="51.19" x2="140.43" y2="51.19" xlink:href="#New_Gradient_Swatch_3"/></defs><title>Artboard 44 copy 14</title><path class="cls-1" d="M33.56,123.66,31.5,123l1.76-1.26c2.59-1.88,3.67-4.6,3.17-8.09-.9-6.52-6.27-7.88-10.61-7.88H11.26a1.33,1.33,0,0,0-1.34,1.34V140.8a1.47,1.47,0,0,0,.45,1,1.31,1.31,0,0,0,.89.31H28.17c6,0,10-3.37,10.48-8.8C39.06,128.34,36.32,124.63,33.56,123.66ZM36,133.1c-.27,2.88-1.85,6.32-7.81,6.32H12.57v-31H25.82c1.81,0,7.31,0,8,5.53a7.62,7.62,0,0,1-1.34,5.73A6.83,6.83,0,0,1,27.69,122l-3.82,0a1.36,1.36,0,0,0-1.36,1.34,1.39,1.39,0,0,0,1.34,1.33l3.87-.07c3.08,0,5.25.8,6.65,2.36A7.49,7.49,0,0,1,36,133.1Z"/><path class="cls-1" d="M56.32,142.13a1.29,1.29,0,0,0,1.31-1.33V107.06a1.32,1.32,0,0,0-1.31-1.34A1.35,1.35,0,0,0,55,107.06V140.8A1.34,1.34,0,0,0,56.32,142.13Z"/><path class="cls-1" d="M75.2,116.71A17.94,17.94,0,0,0,73.68,124a18.85,18.85,0,0,0,1.48,7.29,20,20,0,0,0,4.09,6.05,19.52,19.52,0,0,0,6.1,4.07A18.51,18.51,0,0,0,92.77,143a18.73,18.73,0,0,0,13.41-5.61,18.14,18.14,0,0,0,4-6.05,18.49,18.49,0,0,0,1.45-7.29,18.85,18.85,0,0,0-1.45-7.29,18.72,18.72,0,0,0-17.25-11.6,19.39,19.39,0,0,0-7.5,1.5,1.41,1.41,0,0,0-.48,1.65,1.35,1.35,0,0,0,1.55.77,16.83,16.83,0,0,1,6.43-1.27,15.72,15.72,0,0,1,11.43,4.83,16.11,16.11,0,0,1,4.6,11.41,17.28,17.28,0,0,1-1.2,6.27,16.71,16.71,0,0,1-3.44,5.21,16.22,16.22,0,0,1-11.53,4.8,16.41,16.41,0,0,1-11.64-4.85A16,16,0,0,1,76.33,124a15,15,0,0,1,1.34-6.27,1.29,1.29,0,0,0-.6-1.77C75.87,115.39,75.2,116.71,75.2,116.71Z"/><path class="cls-1" d="M157.49,142a1,1,0,0,0,.7-1.14V107a1.32,1.32,0,0,0-1.34-1.31,1.28,1.28,0,0,0-1.31,1.31v30.14L129.73,106.2a1.29,1.29,0,0,0-1-.48,1.25,1.25,0,0,0-.46.09,1.3,1.3,0,0,0-.86,1.25V140.8a1.33,1.33,0,1,0,2.65,0V110.7l25.77,31a1.61,1.61,0,0,0,1.65.28Z"/><path class="cls-1" d="M204.47,127.57V107.06a1.32,1.32,0,0,0-1.31-1.34,1.36,1.36,0,0,0-1.34,1.34v20.51a15.12,15.12,0,0,1-1.56,7.11,9.16,9.16,0,0,1-3.58,3.7,14.43,14.43,0,0,1-7.31,1.69,14.59,14.59,0,0,1-7.29-1.67,9.32,9.32,0,0,1-3.62-3.74,14.77,14.77,0,0,1-1.59-7.09V107.06a1.32,1.32,0,0,0-1.31-1.34,1.35,1.35,0,0,0-1.34,1.34v20.51a17.67,17.67,0,0,0,1.88,8.36,11.8,11.8,0,0,0,4.64,4.73,16.93,16.93,0,0,0,8.63,2.06c7.93,0,11.57-3.69,13.22-6.79A17.56,17.56,0,0,0,204.47,127.57Z"/><path class="cls-1" d="M232.21,129.09l1,0c.34,0,.68,0,1,0a8.24,8.24,0,0,1,3.37.9,9.82,9.82,0,0,1,3.85,3.38,20,20,0,0,1,3,7.65,1.39,1.39,0,0,0,1.27,1.11,2,2,0,0,1,.52-.07,1.29,1.29,0,0,0,.59-.52,1.4,1.4,0,0,0,.2-1,21.87,21.87,0,0,0-3.53-8.88,13.82,13.82,0,0,0-2.22-2.35L240,128.12l1.87-.93a3.6,3.6,0,0,0,.39-.2c3.35-1.93,5.12-5.14,5.12-9.36a14.53,14.53,0,0,0-.93-5.29,10.27,10.27,0,0,0-2.29-3.56,11,11,0,0,0-5-2.74,10.28,10.28,0,0,0-2.65-.36H221.84A1.34,1.34,0,0,0,220.5,107v33.76a1.39,1.39,0,0,0,1.34,1.34,1.35,1.35,0,0,0,1.34-1.34V108.33h13.27a9.93,9.93,0,0,1,4.3,1.17,8.06,8.06,0,0,1,2.69,2.7,11.34,11.34,0,0,1,1.23,5.43c0,3.29-1.23,5.6-3.76,7a14.9,14.9,0,0,1-6.55,1.68,9.29,9.29,0,0,0-2.31.11,1.29,1.29,0,0,0-1.11,1.38A1.33,1.33,0,0,0,232.21,129.09Z"/><path class="cls-2" d="M136.49,76.55a1.75,1.75,0,0,1-.86-.22c-.3-.16-3-1.74-5.57-7.16-3.3-6.94-5-16.9-5-29.58a1.8,1.8,0,1,1,3.6,0c0,22.41,5.45,30.41,7.7,32.75,4.15-4,18.26-17.71,23.2-22.65a17.64,17.64,0,0,0,4-6.31,1.8,1.8,0,1,1,3.36,1.28,21.24,21.24,0,0,1-4.78,7.57C156.32,58,137.92,75.86,137.74,76A1.79,1.79,0,0,1,136.49,76.55Z"/><path class="cls-3" d="M126.89,66.23c-7.63,0-18.26-7.18-18.26-18.89,0-11.23,14.9-37.64,35.28-37.64a22.93,22.93,0,0,1,19.72,10.24,28.76,28.76,0,0,1,5.06,14.89,1.8,1.8,0,0,1-3.59,0A25.34,25.34,0,0,0,160.67,22a19.25,19.25,0,0,0-16.76-8.68c-18,0-31.68,24.17-31.68,34,0,10.19,9.39,15.3,14.66,15.3,4.73,0,15.11-3.92,15.11-15.57C142,40,137.32,31,129.78,23.7a1.8,1.8,0,1,1,2.51-2.58c8.33,8.08,13.31,17.78,13.31,26C145.6,60.14,134.43,66.23,126.89,66.23Z"/><path class="cls-4" d="M127.34,86.05a1.79,1.79,0,0,1-1.26-.51L92.29,52.48a26.29,26.29,0,0,1-7.16-17.89c0-11.77,10.08-24.89,24.55-24.89,5.32,0,11.66,2.6,17.85,7.32a1.8,1.8,0,0,1-2.18,2.86c-5.57-4.25-11.13-6.58-15.67-6.58-8.57,0-21,7.58-21,21.29A22.87,22.87,0,0,0,94.79,49.9l32.53,31.82,3.83-3.83a1.8,1.8,0,1,1,2.54,2.54l-5.08,5.09A1.8,1.8,0,0,1,127.34,86.05Z"/><path class="cls-5" d="M127.8,56.86a1.77,1.77,0,0,1-1.32-.58l-7.14-7.75A1.79,1.79,0,1,1,122,46.1l7.14,7.75a1.79,1.79,0,0,1-1.32,3Z"/><path class="cls-6" d="M132.5,56.85a1.8,1.8,0,1,1,0-3.6c2.35,0,4.34-2.71,4.34-5.92a1.8,1.8,0,1,1,3.59,0C140.43,52.58,136.87,56.85,132.5,56.85Z"/></svg>