<svg width="307" height="44" viewBox="0 0 307 44" fill="none" xmlns="http://www.w3.org/2000/svg">
<path d="M261.183 41.4004C257.462 41.4004 255.203 39.8059 255.203 37.0154C255.203 34.4907 257.329 32.8962 260.784 32.8962C265.435 32.8962 268.092 34.3578 268.092 36.8825C268.092 39.5401 265.435 41.4004 261.183 41.4004ZM261.183 11.5027C263.84 11.5027 265.435 13.7616 265.435 17.748C265.435 22.133 263.973 24.6577 261.448 24.6577C258.658 24.6577 257.063 22.2658 257.063 18.1466C256.931 14.1602 258.658 11.5027 261.183 11.5027ZM266.365 28.9098L263.043 28.5112C260.385 28.2454 259.588 28.1125 259.588 27.4481C259.588 26.9166 259.987 26.9166 261.714 26.7837C262.644 26.6509 263.973 26.6509 265.435 26.3851C270.086 25.4549 273.142 22.2658 273.142 18.2795C273.142 15.0904 271.414 12.8314 267.694 10.8383C268.225 10.4396 268.757 10.1739 269.288 10.1739C270.75 10.1739 271.813 11.2369 272.212 13.2301V13.4958H273.142L275.401 6.58613L273.408 6.45325C270.484 6.45325 267.827 7.78204 265.435 10.3067C264.106 10.041 262.511 9.77523 261.183 9.77523C254.406 9.77523 249.356 13.4958 249.356 18.5452C249.356 22.2658 251.881 24.9234 256.133 26.2522C253.077 26.9166 251.615 27.9796 251.615 29.4413C251.615 30.6372 252.546 31.4345 254.539 31.8331C249.888 32.7633 247.629 34.6236 247.629 37.2812C247.629 41.1347 252.811 43.6594 260.651 43.6594C269.554 43.6594 274.736 40.736 274.736 35.8195C274.869 31.1687 271.68 29.7071 266.365 28.9098ZM248.028 22.6645L247.895 22.9302C244.174 29.0427 240.321 32.0989 235.803 32.0989C231.816 32.0989 231.418 30.5043 231.418 22.133C231.418 22.133 231.418 18.4124 231.418 17.8808C232.082 17.748 232.879 17.748 233.544 17.748C238.195 17.748 241.118 19.6083 241.915 23.196V23.4618H242.978V9.9081H241.915V10.1739C241.118 13.4958 238.062 15.489 233.677 15.489C233.677 15.489 231.949 15.3561 231.418 15.3561V3.26416C232.082 3.13128 232.747 3.13128 233.411 3.13128C238.859 3.13128 242.845 5.25734 246.034 9.9081L246.167 10.1739L247.23 9.77523L244.839 0.739457H228.362L222.249 0.606578H221.718V1.80249L221.983 1.93537C223.578 2.46688 224.109 3.39704 224.109 5.65598V22.5316C224.109 29.4413 223.977 32.6304 221.585 33.2948H221.319V34.4907H221.718C223.445 34.3578 225.438 34.225 227.431 34.225H230.089H246.566L249.224 22.7974L248.028 22.6645ZM288.29 41.4004C284.569 41.4004 282.31 39.8059 282.31 37.0154C282.31 34.4907 284.436 32.8962 287.758 32.8962C292.409 32.8962 295.067 34.3578 295.067 36.8825C295.067 39.5401 292.409 41.4004 288.29 41.4004ZM288.157 11.5027C290.815 11.5027 292.409 13.7616 292.409 17.748C292.409 22.133 290.948 24.6577 288.423 24.6577C285.632 24.6577 284.038 22.2658 284.038 18.1466C284.038 14.1602 285.632 11.5027 288.157 11.5027ZM293.339 28.9098L290.017 28.5112C287.36 28.2454 286.563 28.1125 286.563 27.4481C286.563 26.9166 286.961 26.9166 288.689 26.7837C289.619 26.6509 290.948 26.6509 292.409 26.3851C297.06 25.4549 300.116 22.2658 300.116 18.2795C300.116 15.0904 298.389 12.8314 294.668 10.8383C295.2 10.4396 295.731 10.1739 296.263 10.1739C297.724 10.1739 298.787 11.2369 299.186 13.2301V13.4958H300.116L302.375 6.58613L300.382 6.45325C297.459 6.45325 294.801 7.78204 292.409 10.3067C291.08 10.041 289.486 9.77523 288.157 9.77523C281.38 9.77523 276.331 13.4958 276.331 18.5452C276.331 22.2658 278.856 24.9234 283.108 26.2522C280.051 26.9166 278.59 27.9796 278.59 29.4413C278.59 30.6372 279.52 31.4345 281.513 31.8331C276.862 32.7633 275.135 34.6236 275.135 37.2812C275.135 41.1347 279.919 43.6594 287.626 43.6594C296.529 43.6594 302.109 40.6031 302.109 35.6866C302.242 31.1687 298.655 29.7071 293.339 28.9098ZM306.229 41.9319C306.096 42.1977 305.963 42.3306 305.83 42.4634C305.697 42.5963 305.431 42.7292 305.298 42.8621C305.033 42.995 304.9 42.995 304.634 42.995C304.368 42.995 304.103 42.995 303.97 42.8621C303.704 42.7292 303.571 42.5963 303.438 42.4634C303.305 42.3306 303.172 42.0648 303.04 41.9319C302.907 41.6662 302.907 41.4004 302.907 41.1347C302.907 40.8689 302.907 40.6031 303.04 40.4703C303.172 40.2045 303.305 40.0716 303.438 39.9387C303.571 39.8059 303.837 39.673 303.97 39.5401C304.235 39.4072 304.368 39.4072 304.634 39.4072C304.9 39.4072 305.166 39.4072 305.298 39.5401C305.564 39.673 305.697 39.8059 305.83 39.9387C305.963 40.0716 306.096 40.3374 306.229 40.4703C306.362 40.736 306.362 41.0018 306.362 41.1347C306.362 41.4004 306.362 41.6662 306.229 41.9319ZM306.627 40.3374C306.494 40.0716 306.362 39.8059 306.096 39.673C305.963 39.5401 305.697 39.2743 305.431 39.2743C305.166 39.1415 304.9 39.1415 304.634 39.1415C304.368 39.1415 304.103 39.1415 303.837 39.2743C303.571 39.4072 303.305 39.5401 303.172 39.673C303.04 39.8059 302.774 40.0716 302.641 40.3374C302.508 40.6031 302.508 40.8689 302.508 41.1347C302.508 41.4004 302.508 41.7991 302.641 42.0648C302.774 42.3306 302.907 42.5963 303.172 42.7292C303.438 42.8621 303.571 43.1278 303.837 43.1278C304.103 43.2607 304.368 43.2607 304.634 43.2607C304.9 43.2607 305.166 43.2607 305.431 43.1278C305.697 42.995 305.963 42.8621 306.096 42.7292C306.229 42.5963 306.494 42.3306 306.627 42.0648C306.76 41.7991 306.76 41.5333 306.76 41.1347C306.76 40.8689 306.76 40.6031 306.627 40.3374ZM304.501 41.0018H304.103V40.2045H304.634C304.634 40.2045 304.767 40.2045 304.9 40.2045C305.033 40.2045 305.033 40.2045 305.033 40.2045C305.033 40.2045 305.166 40.2045 305.166 40.3374C305.166 40.3374 305.166 40.4703 305.166 40.6031C305.166 40.736 305.166 40.736 305.166 40.8689L305.033 41.0018C305.033 41.0018 304.9 41.0018 304.767 41.0018C304.767 41.0018 304.634 41.0018 304.501 41.0018ZM305.431 41.1347C305.564 41.0018 305.564 40.8689 305.564 40.6031C305.564 40.3374 305.431 40.2045 305.298 40.0716C305.166 39.9387 304.9 39.9387 304.634 39.9387H303.704V42.4634H304.103V41.4004H304.501L305.166 42.4634H305.564L304.9 41.4004C305.166 41.2675 305.298 41.2675 305.431 41.1347ZM130.828 9.50947C127.772 9.50947 125.247 11.2369 123.387 14.6917C123.387 13.2301 123.387 10.041 123.387 10.041L122.989 10.1739C120.995 10.7054 117.939 11.2369 113.953 11.7684H113.687V12.8314H113.953C115.946 12.9643 116.212 13.8945 116.212 17.2164V25.4549C116.212 30.6372 115.946 32.6304 113.554 33.4277H113.288V34.4907H114.484L119.667 34.3578L125.912 34.4907H126.178V33.4277H126.045C123.52 32.7633 123.387 30.6372 123.387 25.0563V22.7974C123.387 20.0069 124.052 16.5521 126.842 16.5521C127.506 16.5521 128.038 16.8178 128.437 17.3493L128.569 17.4822H129.5L132.157 9.50947H130.828ZM113.953 18.4124H114.219V17.2164H113.953C111.029 17.3493 108.372 17.3493 105.98 17.3493C103.322 17.3493 100.665 17.3493 98.1402 17.2164H97.8744V18.4124H98.1402C102.658 18.811 103.19 20.0069 103.19 25.0563C103.19 31.3016 101.861 33.1619 97.6087 33.1619C91.762 33.1619 88.9715 28.2454 88.9715 17.8808C88.9715 7.64916 92.1606 2.73264 98.8046 2.73264C103.854 2.73264 106.91 6.05461 107.84 12.6986V12.9643L108.903 13.2301L111.694 4.59295L111.428 4.46007C107.442 1.80249 102.924 0.473699 98.0073 0.473699C86.8455 0.473699 79.4042 7.51628 79.4042 17.8808C79.4042 28.644 86.5797 35.5537 97.6087 35.5537C103.19 35.5537 107.575 34.0921 111.029 30.903L111.162 30.7701L111.029 27.4481V22.0001C111.162 19.7411 111.694 19.0768 113.953 18.4124ZM144.382 11.5027C146.641 11.5027 148.236 13.7616 148.368 17.4822H139.731C140.396 13.6287 142.123 11.5027 144.382 11.5027ZM155.278 24.1262C153.816 29.4413 151.026 32.2318 147.173 32.2318C142.522 32.2318 139.598 28.2454 139.598 21.6015C139.598 21.6015 139.598 20.0069 139.731 19.7411C140.263 19.7411 156.873 19.7411 156.873 19.7411V19.3425C155.943 13.0972 151.558 9.37659 144.648 9.37659C136.941 9.37659 131.493 14.5589 131.493 22.133C131.493 29.7071 136.941 35.0222 144.781 35.0222C151.026 35.0222 155.278 31.7003 157.138 25.3221V25.1892L155.411 23.5946L155.278 24.1262ZM172.154 11.5027C174.413 11.5027 176.007 13.7616 176.14 17.4822H167.503C168.167 13.6287 169.762 11.5027 172.154 11.5027ZM184.91 25.1892L183.183 23.5946L183.05 24.1262C181.588 29.4413 178.798 32.2318 174.944 32.2318C170.293 32.2318 167.37 28.2454 167.37 21.6015C167.37 21.6015 167.37 20.1398 167.503 19.7411C168.035 19.7411 184.644 19.7411 184.644 19.7411V19.3425C183.714 13.0972 179.329 9.37659 172.42 9.37659C164.713 9.37659 159.264 14.5589 159.264 22.133C159.264 29.7071 164.713 35.0222 172.552 35.0222C178.798 35.0222 183.05 31.7003 184.91 25.3221V25.1892ZM211.486 24.9234V20.9371C211.486 13.2301 208.297 9.50947 201.919 9.50947C198.331 9.50947 195.673 11.104 194.079 14.1602C194.079 12.6986 194.079 9.9081 194.079 9.9081L193.68 10.041C191.288 10.7054 188.498 11.2369 185.043 11.6355H184.777V12.6986H185.043C187.036 12.8314 187.302 13.7616 187.302 17.0836V24.9234C187.302 30.1057 187.169 32.4975 184.512 33.4277L184.246 33.5606V34.4907H185.442L190.757 34.3578L197.002 34.4907H197.268V33.5606H197.002C194.345 32.7633 194.212 30.2386 194.212 24.6577V21.4686C194.212 16.1534 196.338 12.8314 199.66 12.8314C202.849 12.8314 204.178 15.3561 204.178 21.4686V25.8536C204.178 30.7701 203.912 32.8962 201.52 33.5606L201.254 33.6934V34.6236H202.45L207.765 34.4907L214.011 34.6236H214.276V33.6934H214.011C211.752 32.7633 211.486 30.5043 211.486 24.9234ZM36.3514 6.71901C39.009 6.71901 41.0022 5.39022 41.0022 3.52992C41.0022 1.66961 39.009 0.34082 36.3514 0.34082C33.6939 0.34082 31.7007 1.66961 31.7007 3.52992C31.7007 5.39022 33.561 6.71901 36.3514 6.71901ZM44.0584 33.4277H43.7927C41.0022 32.7633 40.7364 30.6372 40.7364 25.0563V18.811C40.7364 15.8877 40.7364 13.2301 40.8693 10.4396V10.041L40.4707 10.1739C37.8131 10.7054 34.4911 11.2369 30.1061 11.7684H29.8404V12.8314H30.1061C32.4979 12.9643 32.6308 13.8945 32.6308 17.2164V25.4549C32.6308 30.2386 32.4979 32.6304 29.5746 33.4277H29.3088V34.4907H29.5746C31.9664 34.3578 34.2254 34.3578 36.4843 34.3578C39.1419 34.3578 41.4008 34.3578 43.5269 34.4907H43.7927V33.4277H44.0584ZM14.9579 32.0989C10.9715 32.0989 10.8387 30.6372 10.8387 23.5946C10.8387 23.5946 10.8387 18.0137 10.8387 17.4822C11.3702 17.4822 13.8949 17.3493 13.8949 17.3493C19.4758 17.3493 21.6019 19.3425 21.6019 24.7905C21.469 29.8399 19.3429 32.0989 14.9579 32.0989ZM10.8387 2.86552C11.2373 2.86552 12.699 2.73264 12.699 2.73264C17.6155 2.73264 19.6087 4.46007 19.6087 8.71219C19.6087 13.2301 17.4826 15.2233 12.699 15.2233L11.1044 15.0904C11.1044 15.0904 10.9715 15.0904 10.7058 15.0904V2.86552H10.8387ZM20.406 15.8877C25.0567 14.8246 27.3157 12.167 27.3157 8.31356C27.3157 2.86552 23.1964 0.34082 14.4264 0.34082H11.3702L6.45366 0.473699H1.27138V0.739457V1.53673H1.53714C2.73305 1.80249 3.53033 2.59976 3.53033 5.5231V23.0631C3.53033 30.2386 3.39745 32.6304 1.00563 33.4277H0.739868V34.4907H1.00563C2.86593 34.3578 4.85912 34.3578 6.8523 34.3578L12.1675 34.4907H15.6223C24.791 34.4907 29.5746 31.1687 29.5746 24.6577C29.5746 19.7411 26.5184 16.8178 20.406 15.8877ZM56.6819 24.6577C53.8915 24.6577 52.2969 22.2658 52.2969 18.1466C52.2969 14.1602 54.0243 11.5027 56.549 11.5027C59.2066 11.5027 60.8012 13.7616 60.8012 17.748C60.6683 22.0001 59.2066 24.6577 56.6819 24.6577ZM56.1504 32.8962C60.8012 32.8962 63.4587 34.3578 63.4587 36.8825C63.4587 39.5401 60.8012 41.4004 56.6819 41.4004C52.9613 41.4004 50.7024 39.8059 50.7024 37.0154C50.7024 34.4907 52.8284 32.8962 56.1504 32.8962ZM67.578 12.9643V13.2301H68.5081L70.7671 6.32037L68.7739 6.18749C65.8506 6.18749 63.193 7.51628 60.8012 10.041C59.4724 9.77523 57.8778 9.50947 56.549 9.50947C49.7722 9.50947 44.7228 13.2301 44.7228 18.2795C44.7228 22.0001 47.2475 24.6577 51.4996 25.9865C48.4434 26.6509 46.9818 27.7139 46.9818 29.1756C46.9818 30.3715 47.9119 31.1687 49.9051 31.5674C45.2543 32.4975 43.6598 34.3578 43.6598 37.0154C43.6598 40.8689 48.1777 43.3936 56.0175 43.3936C64.9204 43.3936 70.5013 40.3374 70.5013 35.4209C70.5013 31.0359 66.9136 29.7071 61.5984 28.9098L58.2765 28.5112C55.6189 28.2454 54.8216 28.1125 54.8216 27.4481C54.8216 26.9166 55.2202 26.9166 56.9477 26.7837C57.8778 26.6509 59.2066 26.6509 60.6683 26.3851C65.3191 25.4549 68.3753 22.2658 68.3753 18.2795C68.3753 15.0904 66.6478 12.8314 62.9272 10.8383C63.4587 10.4396 63.9903 10.1739 64.5218 10.1739C65.9835 10.041 67.1794 11.104 67.578 12.9643Z" fill="#1C1917"/>
</svg>
