<svg id="Layer_1" data-name="Layer 1" xmlns="http://www.w3.org/2000/svg" viewBox="0 0 159.43 115.07"><defs><style>.cls-1{fill:#e60000;}</style></defs><title>party_co_RGB</title><path class="cls-1" d="M39.09,73.47H35.74a1,1,0,0,0-1.12,1.11v7a1.11,1.11,0,0,0,1.19,1.2,1.25,1.25,0,0,0,.9-.32A1.22,1.22,0,0,0,37,81.6V79.37h2.06a3.4,3.4,0,0,0,2.38-.78,3.18,3.18,0,0,0,0-4.34A3.41,3.41,0,0,0,39.09,73.47Zm.67,3.82a1.54,1.54,0,0,1-1,.27H37V75.29h1.74c.87,0,1.31.38,1.31,1.14A1.09,1.09,0,0,1,39.76,77.29Z"/><path class="cls-1" d="M50.9,74.13a1.26,1.26,0,0,0-.52-.55,1.52,1.52,0,0,0-1.47,0,1.29,1.29,0,0,0-.51.55l-3.46,7.11a1.07,1.07,0,0,0-.12.48,1,1,0,0,0,.36.74,1.23,1.23,0,0,0,.81.3,1,1,0,0,0,.56-.16,1,1,0,0,0,.4-.47l.6-1.33H51.8l.59,1.33a1,1,0,0,0,.4.47,1,1,0,0,0,.55.16,1.18,1.18,0,0,0,.79-.3,1,1,0,0,0,.35-.74,1.07,1.07,0,0,0-.12-.48ZM48.36,79l1.32-2.92L51,79Z"/><path class="cls-1" d="M65.16,80a2.59,2.59,0,0,0-.64-.67,1.66,1.66,0,0,0-.75-.29,2.86,2.86,0,0,0,1.63-1A2.81,2.81,0,0,0,66,76.3a2.61,2.61,0,0,0-.84-2.1,3.78,3.78,0,0,0-2.53-.73H59.31a1.15,1.15,0,0,0-.83.29,1.12,1.12,0,0,0-.29.82v7a1.12,1.12,0,0,0,1.2,1.2,1.15,1.15,0,0,0,.86-.32,1.22,1.22,0,0,0,.32-.88V79.25h.85a.93.93,0,0,1,.48.13,1.31,1.31,0,0,1,.39.39L64,82.26a1.23,1.23,0,0,0,.48.43,1.2,1.2,0,0,0,.59.15,1.23,1.23,0,0,0,.8-.29.86.86,0,0,0,.35-.7,1.22,1.22,0,0,0-.24-.67ZM63.37,77.2a2.07,2.07,0,0,1-1.15.24H60.54V75.29h1.68a2,2,0,0,1,1.15.26,1,1,0,0,1,.35.83A1,1,0,0,1,63.37,77.2Z"/><path class="cls-1" d="M76.64,73.47H70.5a1.3,1.3,0,0,0-.86.24.88.88,0,0,0-.28.73.92.92,0,0,0,.28.74,1.3,1.3,0,0,0,.86.24h1.85V81.6a1.14,1.14,0,0,0,.33.86,1.38,1.38,0,0,0,1.77,0,1.11,1.11,0,0,0,.34-.86V75.42h1.85a1.32,1.32,0,0,0,.86-.24,1,1,0,0,0,.28-.74.91.91,0,0,0-.28-.73A1.32,1.32,0,0,0,76.64,73.47Z"/><path class="cls-1" d="M88.33,73.39a1,1,0,0,0-.8.39l-2.32,2.76-2.32-2.76a1,1,0,0,0-.8-.39,1.1,1.1,0,0,0-.78.33,1,1,0,0,0-.34.76,1.07,1.07,0,0,0,.3.73L84,78.4v3.2a1.13,1.13,0,0,0,.34.89,1.29,1.29,0,0,0,.88.31,1.24,1.24,0,0,0,.86-.31,1.17,1.17,0,0,0,.34-.89V78.4l2.75-3.19a1.09,1.09,0,0,0,.29-.72,1.06,1.06,0,0,0-.35-.77A1.1,1.1,0,0,0,88.33,73.39Z"/><path class="cls-1" d="M97.3,75.68a2.12,2.12,0,0,0-1.54.63,2.09,2.09,0,0,0-.63,1.56,2.12,2.12,0,0,0,.63,1.56,2.09,2.09,0,0,0,1.54.64,2.05,2.05,0,0,0,1.53-.64,2.12,2.12,0,0,0,.63-1.56,2.15,2.15,0,0,0-2.16-2.19Z"/><path class="cls-1" d="M109.59,75.25a2.94,2.94,0,0,1,.84.12,3.78,3.78,0,0,1,.86.39,2.34,2.34,0,0,0,.37.2A1,1,0,0,0,112,76a.69.69,0,0,0,.56-.28,1,1,0,0,0,.23-.69.94.94,0,0,0-.1-.47.93.93,0,0,0-.32-.34,5.35,5.35,0,0,0-5.36-.3,3.94,3.94,0,0,0-1.61,1.65,5.83,5.83,0,0,0,0,5A4.06,4.06,0,0,0,107,82.26a5.35,5.35,0,0,0,5.36-.3,1,1,0,0,0,.32-.35,1,1,0,0,0,.1-.47,1,1,0,0,0-.23-.68.7.7,0,0,0-.56-.29.75.75,0,0,0-.31.06c-.09,0-.22.1-.41.19a8.79,8.79,0,0,1-.94.39,2.46,2.46,0,0,1-.76.12,2.1,2.1,0,0,1-1.74-.7,3.36,3.36,0,0,1-.57-2.14,3.31,3.31,0,0,1,.57-2.13A2.11,2.11,0,0,1,109.59,75.25Z"/><path class="cls-1" d="M123.38,73.93a4.92,4.92,0,0,0-2.46-.58,5,5,0,0,0-2.46.58,3.94,3.94,0,0,0-1.61,1.65,5.91,5.91,0,0,0,0,5,4.06,4.06,0,0,0,1.61,1.65,5.4,5.4,0,0,0,4.91,0A4.06,4.06,0,0,0,125,80.6a5.91,5.91,0,0,0,0-5A3.81,3.81,0,0,0,123.38,73.93Zm-.82,6.32a2.19,2.19,0,0,1-3.28,0,4.25,4.25,0,0,1,0-4.32,2,2,0,0,1,1.64-.73,2,2,0,0,1,1.64.74,4.23,4.23,0,0,1,0,4.31Z"/><path class="cls-1" d="M126,63H33.48a1.25,1.25,0,1,0,0,2.5H126a1.25,1.25,0,1,0,0-2.5Z"/><path class="cls-1" d="M44.59,54.65l4.91,2.83a1.16,1.16,0,0,0,.62.17A1.24,1.24,0,0,0,51.2,57a1.25,1.25,0,0,0-.45-1.71l-4.91-2.83a1.25,1.25,0,1,0-1.25,2.16Z"/><path class="cls-1" d="M54.72,50.14a1.28,1.28,0,0,0,.89.36,1.25,1.25,0,0,0,.88-2.13l-4-4a1.25,1.25,0,0,0-1.76,1.77Z"/><path class="cls-1" d="M61.67,44.39a1.25,1.25,0,0,0,1.09.63,1.29,1.29,0,0,0,.62-.17,1.26,1.26,0,0,0,.46-1.71L61,38.24a1.25,1.25,0,1,0-2.16,1.25Z"/><path class="cls-1" d="M69.87,40.64a1.26,1.26,0,0,0,1.21.93,1.12,1.12,0,0,0,.32,0A1.25,1.25,0,0,0,72.29,40l-1.47-5.48a1.25,1.25,0,1,0-2.41.65Z"/><path class="cls-1" d="M80,40.39a1.25,1.25,0,0,0,1.25-1.25V33.48a1.25,1.25,0,0,0-2.5,0v5.66A1.25,1.25,0,0,0,80,40.39Z"/><path class="cls-1" d="M88.62,41.53a1.26,1.26,0,0,0,1.53-.89l1.47-5.47a1.25,1.25,0,1,0-2.41-.65L87.74,40A1.25,1.25,0,0,0,88.62,41.53Z"/><path class="cls-1" d="M96.65,44.85a1.23,1.23,0,0,0,1.7-.46l2.84-4.9A1.25,1.25,0,1,0,99,38.24l-2.83,4.9A1.25,1.25,0,0,0,96.65,44.85Z"/><path class="cls-1" d="M104.42,50.5a1.24,1.24,0,0,0,.88-.36l4-4a1.25,1.25,0,0,0,0-1.77,1.27,1.27,0,0,0-1.77,0l-4,4a1.25,1.25,0,0,0,.88,2.13Z"/><path class="cls-1" d="M108.82,57a1.25,1.25,0,0,0,1.09.62,1.19,1.19,0,0,0,.62-.17l4.91-2.83a1.25,1.25,0,0,0-1.25-2.16l-4.91,2.83A1.26,1.26,0,0,0,108.82,57Z"/><path class="cls-1" d="M58,60.32a1.28,1.28,0,0,0,.65.18,1.25,1.25,0,0,0,1.07-.6,23.71,23.71,0,0,1,40.53,0,1.25,1.25,0,1,0,2.14-1.3,26.22,26.22,0,0,0-44.81,0A1.25,1.25,0,0,0,58,60.32Z"/></svg>