<?xml version="1.0" encoding="UTF-8"?> <!-- Generator: Adobe Illustrator 22.1.0, SVG Export Plug-In . SVG Version: 6.00 Build 0) --> <svg xmlns="http://www.w3.org/2000/svg" xmlns:xlink="http://www.w3.org/1999/xlink" version="1.1" id="Réteg_1" x="0px" y="0px" width="620.2px" height="141.8px" viewBox="0 0 620.2 141.8" xml:space="preserve"> <linearGradient id="SVGID_1_" gradientUnits="userSpaceOnUse" x1="42.737" y1="96.5479" x2="42.737" y2="9.181"> <stop offset="0" style="stop-color:#CD2027"></stop> <stop offset="1" style="stop-color:#801518"></stop> </linearGradient> <path fill="url(#SVGID_1_)" d="M42.7,9.2c0,0-1.9,0.1-4.9,0.2c-7.9,0.5-23.1,1.8-29.4,5.2c0,0-3.4,11-3.4,32.8c0,33.4,30,49,37,49 l0.7,0.1l0.8-0.1c7,0,37-15.6,37-49c0-21.8-3.4-32.8-3.4-32.8C70.4,11,54,9.7,46.5,9.3L42.7,9.2z"></path> <path fill="#FFFFFF" d="M47.1,27.9c0,2.4-2,4.4-4.4,4.4c-2.4,0-4.4-2-4.4-4.4c0-2.4,2-4.4,4.4-4.4C45.2,23.5,47.1,25.5,47.1,27.9z"></path> <path fill="#FFFFFF" d="M47.7,33.8h-5h-5c0,0-6.2-0.3-6.2,5.8v15.2c0,0,0,2.2,2.2,2.2c2.2,0,2.1-2.1,2.1-2.1V42c0,0-0.1-0.8,0.5-0.8 c0.6,0,0.5,0.8,0.5,0.8v37.7c0,0,0.3,2.5,2.6,2.5c0,0,2.7-0.4,2.7-2.7c0-2.3,0-22,0-22s0-0.6,0.6-0.6c0.6,0,0.6,0.6,0.6,0.6 s0,19.7,0,22c0,2.3,2.7,2.7,2.7,2.7c2.4,0,2.6-2.5,2.6-2.5V42c0,0-0.1-0.8,0.5-0.8c0.6,0,0.5,0.8,0.5,0.8v12.9c0,0-0.1,2.1,2.1,2.1 c2.2,0,2.2-2.2,2.2-2.2V39.6C54,33.5,47.7,33.8,47.7,33.8z"></path> <g> <path fill="#231F20" stroke="#231F20" stroke-width="2" d="M99,38.1h3.6l8.9,19.3l8.8-19.3h3.7l-12.1,26.5h-0.6L99,38.1z"></path> <path fill="#231F20" stroke="#231F20" stroke-width="2" d="M151.5,55.8l2.9,1.5c-0.9,1.9-2,3.3-3.3,4.5c-1.2,1.1-2.6,2-4.2,2.6 c-1.5,0.6-3.3,0.9-5.2,0.9c-4.3,0-7.7-1.4-10.1-4.3c-2.4-2.8-3.7-6-3.7-9.6c0-3.4,1-6.4,3.1-9c2.6-3.3,6.1-5,10.5-5 c4.5,0,8.1,1.7,10.8,5.1c1.9,2.4,2.9,5.4,2.9,9.1h-23.9c0.1,3.1,1,5.6,3,7.6c1.9,2,4.3,3,7.1,3c1.3,0,2.7-0.2,3.9-0.7 c1.3-0.5,2.4-1.1,3.3-1.9C149.4,58.8,150.4,57.5,151.5,55.8z M151.5,48.6c-0.5-1.8-1.1-3.3-2-4.4c-0.9-1.1-2-2-3.5-2.6 c-1.4-0.7-2.9-1-4.5-1c-2.6,0-4.8,0.8-6.7,2.5c-1.4,1.2-2.4,3-3.1,5.5H151.5z"></path> <path fill="#231F20" stroke="#231F20" stroke-width="2" d="M188,27.8v36.7h-3.4V60c-1.4,1.7-3,3-4.8,3.9c-1.8,0.9-3.7,1.3-5.8,1.3 c-3.8,0-7-1.4-9.6-4.1c-2.7-2.7-4-6-4-9.9c0-3.8,1.3-7.1,4-9.8c2.7-2.7,5.9-4.1,9.7-4.1c2.2,0,4.1,0.5,5.9,1.4s3.3,2.3,4.6,4.2 V27.8H188z M174.4,40.7c-1.9,0-3.7,0.5-5.3,1.4s-2.9,2.2-3.8,3.9c-0.9,1.7-1.4,3.5-1.4,5.4c0,1.9,0.5,3.7,1.4,5.4s2.2,3,3.9,4 s3.3,1.4,5.2,1.4c1.9,0,3.6-0.5,5.3-1.4c1.7-0.9,3-2.2,3.9-3.8c0.9-1.6,1.4-3.4,1.4-5.4c0-3.1-1-5.6-3-7.7 C179.8,41.7,177.3,40.7,174.4,40.7z"></path> <path fill="#231F20" stroke="#231F20" stroke-width="2" d="M208.3,37.4c4.1,0,7.5,1.5,10.2,4.4c2.4,2.7,3.7,5.9,3.7,9.6 c0,3.7-1.3,6.9-3.9,9.7c-2.6,2.8-5.9,4.2-9.9,4.2c-4.1,0-7.4-1.4-10-4.2c-2.6-2.8-3.9-6-3.9-9.7c0-3.7,1.2-6.9,3.7-9.6 C200.8,38.9,204.2,37.4,208.3,37.4z M208.3,40.7c-2.8,0-5.3,1-7.3,3.1c-2,2.1-3.1,4.6-3.1,7.6c0,1.9,0.5,3.7,1.4,5.4 c0.9,1.7,2.2,2.9,3.8,3.8c1.6,0.9,3.3,1.4,5.2,1.4c1.9,0,3.6-0.5,5.2-1.4c1.6-0.9,2.8-2.2,3.8-3.8c0.9-1.7,1.4-3.4,1.4-5.4 c0-3-1-5.5-3.1-7.6C213.5,41.8,211.1,40.7,208.3,40.7z"></path> <path fill="#231F20" stroke="#231F20" stroke-width="2" d="M239.3,27.8v3.3c-1.3-0.5-2.3-0.8-3.2-0.8c-0.7,0-1.2,0.1-1.7,0.4 c-0.4,0.3-0.7,0.6-0.8,0.9c-0.1,0.3-0.2,1.3-0.2,2.8l0,3.6h5.5V41h-5.5l0,23.6H230V41h-3.5v-2.9h3.5v-4.1c0-1.9,0.2-3.3,0.5-4.1 c0.3-0.8,0.9-1.5,1.8-2c0.8-0.5,1.8-0.7,3-0.7C236.5,27.1,237.8,27.4,239.3,27.8z"></path> <path fill="#231F20" stroke="#231F20" stroke-width="2" d="M266.4,55.8l2.9,1.5c-0.9,1.9-2,3.3-3.3,4.5c-1.2,1.1-2.6,2-4.2,2.6 c-1.5,0.6-3.3,0.9-5.2,0.9c-4.3,0-7.7-1.4-10.1-4.3c-2.4-2.8-3.7-6-3.7-9.6c0-3.4,1-6.4,3.1-9c2.6-3.3,6.1-5,10.5-5 c4.5,0,8.1,1.7,10.8,5.1c1.9,2.4,2.9,5.4,2.9,9.1h-23.9c0.1,3.1,1,5.6,3,7.6c1.9,2,4.3,3,7.1,3c1.3,0,2.7-0.2,3.9-0.7 c1.3-0.5,2.4-1.1,3.3-1.9C264.4,58.8,265.4,57.5,266.4,55.8z M266.4,48.6c-0.5-1.8-1.1-3.3-2-4.4c-0.9-1.1-2-2-3.5-2.6 c-1.4-0.7-2.9-1-4.5-1c-2.6,0-4.8,0.8-6.7,2.5c-1.4,1.2-2.4,3-3.1,5.5H266.4z"></path> <path fill="#231F20" stroke="#231F20" stroke-width="2" d="M276,27.8h3.4v36.7H276V27.8z"></path> <path fill="#231F20" stroke="#231F20" stroke-width="2" d="M299.8,41l-2.2,2.3c-1.8-1.8-3.6-2.7-5.3-2.7c-1.1,0-2.1,0.4-2.8,1.1 s-1.2,1.6-1.2,2.6c0,0.9,0.3,1.7,1,2.5c0.7,0.8,2,1.7,4.1,2.8c2.5,1.3,4.3,2.6,5.2,3.8c0.9,1.2,1.3,2.6,1.3,4.2 c0,2.2-0.8,4-2.3,5.5s-3.4,2.3-5.7,2.3c-1.5,0-3-0.3-4.4-1c-1.4-0.7-2.5-1.6-3.5-2.8l2.1-2.4c1.7,2,3.6,2.9,5.5,2.9 c1.4,0,2.5-0.4,3.5-1.3c1-0.9,1.4-1.9,1.4-3.1c0-1-0.3-1.8-1-2.6c-0.6-0.7-2.1-1.7-4.3-2.8c-2.4-1.2-4-2.5-4.9-3.7 c-0.9-1.2-1.3-2.6-1.3-4.1c0-2,0.7-3.7,2.1-5c1.4-1.3,3.1-2,5.2-2C294.9,37.4,297.4,38.6,299.8,41z"></path> <path fill="#231F20" stroke="#231F20" stroke-width="2" d="M303.7,38.1h19.5l-15,23.5h14.5v3h-20.4l15-23.5h-13.6V38.1z"></path> <path fill="#231F20" stroke="#231F20" stroke-width="2" d="M349.4,55.8l2.9,1.5c-0.9,1.9-2,3.3-3.3,4.5c-1.2,1.1-2.6,2-4.2,2.6 s-3.3,0.9-5.2,0.9c-4.3,0-7.7-1.4-10.1-4.3c-2.4-2.8-3.7-6-3.7-9.6c0-3.4,1-6.4,3.1-9c2.6-3.3,6.1-5,10.5-5c4.5,0,8.1,1.7,10.8,5.1 c1.9,2.4,2.9,5.4,2.9,9.1h-23.9c0.1,3.1,1,5.6,3,7.6c1.9,2,4.3,3,7.1,3c1.3,0,2.7-0.2,3.9-0.7c1.3-0.5,2.4-1.1,3.3-1.9 C347.4,58.8,348.4,57.5,349.4,55.8z M349.4,48.6c-0.5-1.8-1.1-3.3-2-4.4c-0.9-1.1-2-2-3.5-2.6c-1.4-0.7-2.9-1-4.5-1 c-2.6,0-4.8,0.8-6.7,2.5c-1.4,1.2-2.4,3-3.1,5.5H349.4z"></path> <path fill="#231F20" stroke="#231F20" stroke-width="2" d="M358.2,38.1h3.5v3.9c1-1.5,2.1-2.7,3.3-3.4s2.4-1.1,3.6-1.1 c0.9,0,1.9,0.3,3,0.9l-1.8,2.9c-0.7-0.3-1.3-0.5-1.8-0.5c-1.1,0-2.2,0.5-3.3,1.4c-1.1,0.9-1.9,2.4-2.4,4.3 c-0.4,1.5-0.6,4.6-0.6,9.2v9h-3.5V38.1z"></path> <path fill="#231F20" stroke="#231F20" stroke-width="2" d="M396.8,55.8l2.9,1.5c-0.9,1.9-2,3.3-3.3,4.5c-1.2,1.1-2.6,2-4.2,2.6 s-3.3,0.9-5.2,0.9c-4.3,0-7.7-1.4-10.1-4.3c-2.4-2.8-3.7-6-3.7-9.6c0-3.4,1-6.4,3.1-9c2.6-3.3,6.1-5,10.5-5c4.5,0,8.1,1.7,10.8,5.1 c1.9,2.4,2.9,5.4,2.9,9.1h-23.9c0.1,3.1,1,5.6,3,7.6c1.9,2,4.3,3,7.1,3c1.3,0,2.7-0.2,3.9-0.7c1.3-0.5,2.4-1.1,3.3-1.9 C394.8,58.8,395.8,57.5,396.8,55.8z M396.8,48.6c-0.5-1.8-1.1-3.3-2-4.4c-0.9-1.1-2-2-3.5-2.6c-1.4-0.7-2.9-1-4.5-1 c-2.6,0-4.8,0.8-6.7,2.5c-1.4,1.2-2.4,3-3.1,5.5H396.8z"></path> <path fill="#231F20" stroke="#231F20" stroke-width="2" d="M406.4,27.8h3.4v36.7h-3.4V27.8z"></path> <path fill="#231F20" stroke="#231F20" stroke-width="2" d="M439.3,55.8l2.9,1.5c-0.9,1.9-2,3.3-3.3,4.5c-1.2,1.1-2.6,2-4.2,2.6 s-3.3,0.9-5.2,0.9c-4.3,0-7.7-1.4-10.1-4.3c-2.4-2.8-3.7-6-3.7-9.6c0-3.4,1-6.4,3.1-9c2.6-3.3,6.1-5,10.5-5c4.5,0,8.1,1.7,10.8,5.1 c1.9,2.4,2.9,5.4,2.9,9.1h-23.9c0.1,3.1,1,5.6,3,7.6c1.9,2,4.3,3,7.1,3c1.3,0,2.7-0.2,3.9-0.7c1.3-0.5,2.4-1.1,3.3-1.9 C437.3,58.8,438.2,57.5,439.3,55.8z M439.3,48.6c-0.5-1.8-1.1-3.3-2-4.4c-0.9-1.1-2-2-3.5-2.6c-1.4-0.7-2.9-1-4.5-1 c-2.6,0-4.8,0.8-6.7,2.5c-1.4,1.2-2.4,3-3.1,5.5H439.3z"></path> <path fill="#231F20" stroke="#231F20" stroke-width="2" d="M462.7,41l-2.2,2.3c-1.8-1.8-3.6-2.7-5.3-2.7c-1.1,0-2.1,0.4-2.8,1.1 s-1.2,1.6-1.2,2.6c0,0.9,0.3,1.7,1,2.5c0.7,0.8,2,1.7,4.1,2.8c2.5,1.3,4.3,2.6,5.2,3.8c0.9,1.2,1.3,2.6,1.3,4.2 c0,2.2-0.8,4-2.3,5.5c-1.5,1.5-3.4,2.3-5.7,2.3c-1.5,0-3-0.3-4.4-1c-1.4-0.7-2.5-1.6-3.5-2.8l2.1-2.4c1.7,2,3.6,2.9,5.5,2.9 c1.4,0,2.5-0.4,3.5-1.3c1-0.9,1.4-1.9,1.4-3.1c0-1-0.3-1.8-1-2.6c-0.6-0.7-2.1-1.7-4.3-2.8c-2.4-1.2-4-2.5-4.9-3.7 c-0.9-1.2-1.3-2.6-1.3-4.1c0-2,0.7-3.7,2.1-5s3.1-2,5.2-2C457.8,37.4,460.2,38.6,462.7,41z"></path> <path fill="#231F20" stroke="#231F20" stroke-width="2" d="M491.1,55.8l2.9,1.5c-0.9,1.9-2,3.3-3.3,4.5c-1.2,1.1-2.6,2-4.2,2.6 s-3.3,0.9-5.2,0.9c-4.3,0-7.7-1.4-10.1-4.3c-2.4-2.8-3.7-6-3.7-9.6c0-3.4,1-6.4,3.1-9c2.6-3.3,6.1-5,10.5-5c4.5,0,8.1,1.7,10.8,5.1 c1.9,2.4,2.9,5.4,2.9,9.1H471c0.1,3.1,1,5.6,3,7.6c1.9,2,4.3,3,7.1,3c1.3,0,2.7-0.2,3.9-0.7c1.3-0.5,2.4-1.1,3.3-1.9 C489.1,58.8,490,57.5,491.1,55.8z M491.1,48.6c-0.5-1.8-1.1-3.3-2-4.4c-0.9-1.1-2-2-3.5-2.6c-1.4-0.7-2.9-1-4.5-1 c-2.6,0-4.8,0.8-6.7,2.5c-1.4,1.2-2.4,3-3.1,5.5H491.1z"></path> <path fill="#231F20" stroke="#231F20" stroke-width="2" d="M501.2,27.8h3.4v20.9l12.3-10.7h5l-14.6,12.6l15.4,13.9h-4.8l-13.4-11.9 v11.9h-3.4V27.8z"></path> <path fill="#231F20" stroke="#231F20" stroke-width="2" d="M530,59.2c0.8,0,1.5,0.3,2.1,0.9s0.9,1.3,0.9,2.1c0,0.8-0.3,1.5-0.9,2.1 s-1.3,0.9-2.1,0.9s-1.5-0.3-2.1-0.9s-0.9-1.3-0.9-2.1c0-0.8,0.3-1.6,0.9-2.1S529.2,59.2,530,59.2z"></path> <path fill="#231F20" stroke="#231F20" stroke-width="2" d="M540.1,27.8h3.4v15c1.4-1.8,2.9-3.2,4.6-4.1c1.7-0.9,3.5-1.4,5.4-1.4 c2,0,3.7,0.5,5.3,1.5c1.5,1,2.7,2.4,3.4,4.1c0.7,1.7,1.1,4.4,1.1,8v13.6h-3.4V51.9c0-3.1-0.1-5.1-0.4-6.1c-0.4-1.8-1.2-3.1-2.3-4 c-1.1-0.9-2.6-1.3-4.4-1.3c-2.1,0-3.9,0.7-5.5,2c-1.6,1.4-2.7,3.1-3.2,5.1c-0.3,1.3-0.5,3.7-0.5,7.2v9.7h-3.4V27.8z"></path> <path fill="#231F20" stroke="#231F20" stroke-width="2" d="M570,38.1h3.4v12.4c0,3,0.2,5.1,0.5,6.2c0.5,1.6,1.4,2.9,2.8,3.8 c1.4,0.9,3,1.4,4.9,1.4c1.9,0,3.5-0.5,4.8-1.4c1.3-0.9,2.2-2.1,2.7-3.6c0.3-1,0.5-3.2,0.5-6.5V38.1h3.5v13c0,3.7-0.4,6.4-1.3,8.3 s-2.1,3.3-3.8,4.3c-1.7,1-3.9,1.6-6.4,1.6s-4.7-0.5-6.5-1.6c-1.7-1-3-2.5-3.9-4.4c-0.9-1.9-1.3-4.7-1.3-8.5V38.1z"></path> </g> <path fill="#FFFFFF" d="M47,27.7c0,2.5-2,4.5-4.5,4.5s-4.5-2-4.5-4.5c0-2.5,2-4.5,4.5-4.5S47,25.2,47,27.7z"></path> <path fill="#FFFFFF" d="M47.6,33.6h-5h-5c0,0-6.3-0.3-6.3,5.9v15.3c0,0,0,2.2,2.2,2.2c2.2,0,2.1-2.1,2.1-2.1v-13 c0,0-0.1-0.8,0.5-0.8c0.6,0,0.6,0.8,0.6,0.8V80c0,0,0.3,2.6,2.7,2.6c0,0,2.7-0.4,2.7-2.7c0-2.3,0-22.2,0-22.2s0-0.6,0.6-0.6 c0.6,0,0.6,0.6,0.6,0.6s0,19.9,0,22.2c0,2.3,2.7,2.7,2.7,2.7c2.4,0,2.7-2.6,2.7-2.6V41.9c0,0-0.1-0.8,0.6-0.8c0.6,0,0.5,0.8,0.5,0.8 v13c0,0-0.1,2.1,2.1,2.1c2.2,0,2.2-2.2,2.2-2.2V39.5C53.9,33.3,47.6,33.6,47.6,33.6z"></path> <g> <path fill="#8B191C" d="M415.6,112.2c-0.8,1-1.7,1.9-2.7,2.7s-2.1,1.5-3.3,2.1c-1.2,0.6-2.4,1.1-3.6,1.4c-1.2,0.4-2.4,0.6-3.6,0.7 c-1.3,0.1-2.5,0.1-3.6-0.1c-1.1-0.2-2.2-0.5-3.1-1s-1.6-1.2-2.2-2.1c-0.6-0.9-0.9-2-1.1-3.2c-0.1-1.1,0-2.2,0.3-3.3 c0.3-1.1,0.8-2,1.5-2.9c0.7-0.9,1.7-1.6,3-2.2c1.2-0.6,2.8-1,4.5-1.3c-1.2,0.1-2.2,0.1-3.1-0.2c-0.9-0.3-1.7-0.6-2.3-1.2 s-1.1-1.2-1.5-1.9c-0.4-0.7-0.6-1.6-0.7-2.4c-0.1-0.8,0-1.6,0.2-2.3c0.2-0.7,0.5-1.3,1-1.9c0.4-0.6,1-1.1,1.6-1.6 c0.6-0.5,1.3-0.9,2.1-1.2s1.6-0.6,2.4-0.9c0.8-0.2,1.7-0.4,2.6-0.5c1.3-0.1,2.5-0.1,3.8,0c1.3,0.2,2.4,0.5,3.4,0.9 c1,0.5,1.8,1.1,2.5,1.8c0.7,0.8,1.1,1.7,1.2,2.8c0,0.4-0.1,0.8-0.3,1.2c-0.2,0.4-0.5,0.8-0.9,1.1s-0.7,0.6-1.1,0.8 c-0.4,0.2-0.7,0.3-1,0.4c-0.2,0-0.4-0.2-0.4-0.6c0-0.4,0-0.8,0-1.4s0.2-1.3,0.4-2.2c-0.3-0.2-0.8-0.4-1.4-0.6s-1.3-0.3-2-0.5 s-1.5-0.2-2.3-0.2c-0.8,0-1.6,0-2.4,0.1c-0.7,0.1-1.4,0.2-2.1,0.4c-0.7,0.2-1.2,0.5-1.7,0.8c-0.5,0.4-0.8,0.8-1.1,1.3 c-0.2,0.5-0.3,1.1-0.3,1.9c0.1,0.6,0.2,1.1,0.5,1.4c0.3,0.4,0.6,0.7,1,0.9c0.4,0.2,0.8,0.4,1.3,0.6c0.5,0.1,1,0.2,1.5,0.3 s1,0.2,1.5,0.3c0.5,0.1,0.9,0.2,1.4,0.3s0.8,0.3,1.1,0.5c0.3,0.2,0.5,0.5,0.6,0.9c0,0.2,0.1,0.5,0.1,0.7s0.1,0.5,0.1,0.7 c0.1,0.7,0,1.1-0.2,1.5c-0.2,0.3-0.6,0.5-1.3,0.6c-0.3,0-0.6,0-1.1,0.1c-0.4,0-0.8,0-1.2,0.1c-0.9,0.1-1.7,0.3-2.5,0.6 c-0.8,0.3-1.5,0.7-2.1,1.2c-0.6,0.5-1.1,1.1-1.4,1.7c-0.3,0.7-0.5,1.4-0.4,2.3c0.1,0.8,0.3,1.4,0.5,1.9c0.3,0.5,0.6,0.9,1.1,1.2 c0.4,0.3,0.9,0.5,1.5,0.5c0.6,0.1,1.1,0.1,1.8,0c0.8-0.1,1.6-0.2,2.4-0.5c0.8-0.2,1.7-0.5,2.5-0.9c0.8-0.3,1.6-0.7,2.4-1.2 c0.8-0.4,1.5-0.9,2.1-1.4c0.6-0.5,1.2-1,1.7-1.5c0.5-0.5,0.8-1,1.1-1.5L415.6,112.2z M403.5,83.9c0.1-0.1,0.1-0.4,0.2-0.7 c0.1-0.3,0.2-0.6,0.3-1s0.2-0.8,0.4-1.2c0.1-0.4,0.3-0.9,0.4-1.3c0.3-1,0.7-2.1,1.1-3.3c0.1-0.4,0.3-0.7,0.6-0.9 c0.3-0.2,0.6-0.3,0.9-0.3c0.3,0,0.6,0,0.9,0.1c0.3,0.1,0.6,0.2,0.8,0.4c0.2,0.2,0.4,0.4,0.6,0.6c0.2,0.3,0.3,0.5,0.3,0.9 c0.1,0.5-0.1,1.1-0.4,1.6c-0.2,0.3-0.4,0.6-0.6,1c-0.2,0.4-0.5,0.8-0.7,1.2c-0.2,0.4-0.5,0.8-0.8,1.2c-0.3,0.4-0.5,0.8-0.7,1.1 c-0.2,0.4-0.5,0.7-0.6,1c-0.2,0.3-0.3,0.5-0.5,0.7c-0.2,0.2-0.3,0.4-0.5,0.5c-0.2,0.1-0.4,0.2-0.5,0.2c-0.3,0-0.5-0.1-0.7-0.2 s-0.3-0.4-0.4-0.8c0-0.1,0-0.2,0-0.4S403.5,84.1,403.5,83.9z"></path> <path fill="#8B191C" d="M418.6,116c-0.6,0.1-1.2-0.1-1.7-0.6c-0.6-0.5-1.1-1.1-1.5-1.9s-0.9-1.8-1.2-2.9c-0.3-1.1-0.6-2.3-0.7-3.5 c-0.1-1.1-0.1-2.5,0-4.3c0.1-1.8,0.2-2.7,0.2-2.7s0.1-0.9,0.4-2.7c0.3-1.8,0.6-3.3,1-4.4c0.4-1.1,0.8-2.2,1.2-3.2s1-1.9,1.5-2.6 c0.5-0.8,1.1-1.4,1.8-1.8c0.6-0.5,1.3-0.7,2-0.8c0.5-0.1,0.9,0,1.3,0.2c0.3,0.2,0.6,0.4,0.8,0.7s0.4,0.6,0.5,1 c0.1,0.4,0.2,0.8,0.2,1.2c0.1,1,0.1,2.1,0,3.2c-0.1,1.1-0.4,2.2-0.7,3.3c-0.3,1.1-0.7,2.2-1.1,3.4s-0.9,2.3-1.4,3.4s-1,2.2-1.4,3.3 c-0.5,1.1-0.9,2.2-1.3,3.2c0,0.1-0.1,0.3-0.1,0.4c0,0.2-0.1,0.4-0.1,0.6c0,0.2-0.1,0.4-0.1,0.7c0,0.2-0.1,0.5-0.1,0.7l0,0.2 c0,0.3,0.1,0.6,0.2,0.8c0.1,0.3,0.2,0.5,0.3,0.7s0.2,0.4,0.3,0.5c0.1,0.1,0.2,0.2,0.3,0.2c0.2,0,0.4-0.1,0.7-0.2 c0.3-0.1,0.5-0.3,0.8-0.4c0.3-0.2,0.6-0.4,0.9-0.6c0.3-0.2,0.6-0.5,0.9-0.7c0.7-0.5,1.3-1.1,2-1.8l1.8,3.3 c-0.9,0.8-1.8,1.5-2.8,2.1c-0.4,0.3-0.8,0.5-1.2,0.8c-0.4,0.3-0.9,0.5-1.3,0.7c-0.4,0.2-0.9,0.4-1.3,0.5 C419.4,115.8,419,115.9,418.6,116z M417.3,103c0.4-0.9,0.8-2,1.3-3.1c0.4-1.2,0.8-2.3,1.2-3.5c0.4-1.2,0.7-2.4,0.9-3.6 c0.2-1.2,0.4-2.3,0.4-3.3c0-0.3-0.1-0.6-0.1-0.8c0-0.2-0.1-0.3-0.2-0.3c-0.3,0-0.6,0.3-0.9,0.7s-0.6,1-0.9,1.8 c-0.3,0.7-0.6,1.9-0.9,3.6c-0.3,1.6-0.5,2.5-0.5,2.5c0,0-0.1,0.8-0.2,2.2S417.3,101.9,417.3,103z"></path> <path fill="#8B191C" d="M423.2,110.2c-0.1-0.8-0.2-1.5-0.3-2.1c-0.1-0.6-0.2-1.1-0.3-1.6c-0.1-0.5-0.1-0.9-0.2-1.3 c-0.1-0.4-0.1-0.8-0.1-1.3c-0.1-1.4-0.2-2.5-0.2-3.1c0-0.6,0.2-1,0.6-1.1l2-0.5l0.2,0c0,0,0.1,0,0.2,0c0.3,0,0.5,0.1,0.7,0.3 c0.2,0.2,0.3,0.4,0.3,0.7l0.8,10.8l0.1,0l3.3-11.3c0-0.2,0.1-0.3,0.2-0.5c0.1-0.2,0.2-0.3,0.4-0.4c0.2-0.1,0.3-0.2,0.6-0.3 s0.4-0.1,0.7-0.2c0.6-0.1,1.1,0,1.6,0.2c0.4,0.2,0.6,0.5,0.7,0.9c0,0.3,0,0.6,0,0.9c-0.1,0.3-0.1,0.7-0.2,0.9 c-0.2,0.6-0.4,1-0.4,1.1c-0.4,1.2-0.6,1.9-0.6,2.1c0,0.2-0.1,0.4-0.1,0.6c0,0.2-0.1,0.4-0.1,0.6c0,0.2,0,0.5,0,0.7 c0,0.3,0.1,0.5,0.2,0.8c0.1,0.2,0.2,0.5,0.4,0.6c0.2,0.2,0.4,0.3,0.7,0.4c0.3,0.1,0.7,0.1,1.1,0.1c0.3,0,0.7-0.2,1.1-0.4 c0.4-0.2,0.8-0.4,1.2-0.7c0.4-0.3,0.8-0.6,1.3-1l0.4,3.8c-0.7,0.5-1.4,1-2.1,1.3c-0.7,0.4-1.5,0.6-2.1,0.6c-0.6,0.1-1.1,0-1.6-0.1 s-0.9-0.3-1.2-0.6c-0.4-0.3-0.6-0.6-0.9-0.9c-0.2-0.4-0.4-0.7-0.4-1.2c-0.2,0.7-0.5,1.4-0.9,2.1c-0.3,0.7-0.7,1.4-1.1,2 c-0.4,0.6-0.8,1.1-1.1,1.5c-0.4,0.4-0.8,0.6-1.1,0.6c-0.7,0.1-1.2,0-1.6-0.3s-0.7-0.7-0.9-1.1c-0.2-0.5-0.4-1-0.5-1.6 s-0.2-1.1-0.3-1.6L423.2,110.2z"></path> <path fill="#8B191C" d="M443.3,113.4c-1,0.1-1.9,0-2.7-0.3c-0.8-0.3-1.5-0.7-2.1-1.3c-0.6-0.6-1-1.3-1.4-2.1 c-0.3-0.8-0.6-1.7-0.6-2.6c-0.1-0.6,0-1.3,0.1-2.2c0.1-0.9,0.3-1.6,0.5-2.3s0.4-1.3,0.7-1.9c0.3-0.6,0.7-1.2,1.1-1.7 c0.4-0.5,1-0.9,1.5-1.2c0.6-0.3,1.2-0.5,2-0.6c0.6-0.1,1.2,0,1.7,0.1c0.5,0.1,1,0.4,1.4,0.7c0.4,0.3,0.8,0.7,1,1.2s0.4,1,0.5,1.6 c0.1,0.7-0.1,1.4-0.4,2.3c-0.4,0.9-0.8,1.6-1.3,2.3c-0.5,0.6-1.2,1.2-1.9,1.8c-0.8,0.5-1.6,1-2.5,1.3c0.2,0.3,0.4,0.5,0.6,0.7 c0.2,0.2,0.4,0.3,0.5,0.4c0.2,0.1,0.4,0.1,0.5,0.2c0.2,0,0.4,0,0.6,0c0.7-0.1,1.3-0.3,2-0.6s1.4-0.7,2-1.2c0.6-0.5,1.2-0.9,1.8-1.4 s1-1,1.4-1.4l2.3,1.9c-0.9,1.1-1.8,2.1-2.8,3c-0.4,0.4-0.9,0.8-1.4,1.1c-0.5,0.4-1,0.7-1.6,1s-1.2,0.6-1.8,0.8 C444.6,113.2,443.9,113.4,443.3,113.4z M440.3,105.9c0.4,0,0.8-0.2,1.3-0.4c0.4-0.2,0.8-0.5,1.2-0.9c0.4-0.3,0.7-0.8,1-1.4 c0.3-0.6,0.5-1,0.4-1.3c0-0.5-0.2-0.9-0.4-1.1s-0.4-0.4-0.7-0.4c-0.5,0-0.9,0.2-1.2,0.4c-0.3,0.2-0.6,0.5-0.8,0.7 c-0.2,0.3-0.3,0.6-0.4,1c-0.1,0.4-0.2,0.8-0.3,1.3c-0.1,0.5-0.2,1-0.2,1.3C440.3,105.4,440.3,105.7,440.3,105.9z"></path> <path fill="#8B191C" d="M448.1,110c0-0.2,0-0.4,0.1-0.6s0.2-0.3,0.3-0.5c0.1-0.2,0.3-0.3,0.4-0.5c0.2-0.2,0.3-0.4,0.5-0.6l4.5-7.8 c-0.2-0.1-0.4-0.1-0.5-0.2s-0.3-0.1-0.4-0.2c-0.1,0-0.2-0.1-0.4-0.1c-0.1,0-0.3,0-0.4,0c-0.3,0-0.6,0.1-0.9,0.1 c-0.2,0-0.4,0.1-0.6,0.2c-0.2,0.1-0.3,0.2-0.4,0.3c-0.1,0.1-0.2,0.3-0.4,0.6c-0.3,0.5-0.5,0.9-0.7,1.2c-0.2,0.3-0.4,0.4-0.6,0.4 c-0.2,0-0.3,0-0.4-0.2c-0.1-0.2-0.1-0.4-0.2-0.6c0-0.1,0-0.2,0-0.4s0-0.3,0-0.4c0.1-1,0.2-1.8,0.5-2.4s0.5-1.1,0.9-1.5 c0.3-0.4,0.7-0.6,1.1-0.8c0.4-0.2,0.8-0.3,1.1-0.3c0.3,0,0.5,0,0.8,0.1c0.3,0.1,0.5,0.2,0.8,0.3s0.5,0.2,0.8,0.3 c0.3,0.1,0.6,0.1,0.8,0.1c0.2,0,0.4,0,0.6,0c0.2,0,0.3,0,0.5-0.1c0.4,0,0.8-0.1,1-0.1c0.3,0,0.5-0.1,0.6-0.1c0.1,0,0.2-0.1,0.3-0.1 c0.1,0,0.1,0,0.1,0c0.4,0,0.7,0.1,0.9,0.3c0.2,0.3,0.3,0.6,0.4,1.1c0,0.4,0,0.7,0,1c0,0.1-0.1,0.2-0.3,0.4 c-0.2,0.2-0.5,0.3-0.9,0.5c-0.1,0.3-0.3,0.6-0.5,1.1c-0.3,0.5-0.6,1-0.9,1.6c-0.3,0.6-0.7,1.2-1.1,2c-0.4,0.7-0.8,1.4-1.1,1.9 c-0.3,0.5-0.6,1-0.9,1.4c-0.2,0.4-0.4,0.7-0.5,0.8l0,0.3c0,0,0.1,0,0.3,0.1s0.4,0.1,0.7,0.2c0.3,0.1,0.5,0.1,0.8,0.2 c0.3,0,0.5,0.1,0.7,0c0.5,0,0.9-0.2,1.2-0.3c0.4-0.2,0.7-0.4,1-0.6c0.3-0.2,0.6-0.5,0.8-0.8c0.3-0.3,0.5-0.5,0.7-0.8 c0.2-0.2,0.5-0.4,0.7-0.6s0.5-0.3,0.8-0.3c0.2,0,0.4,0,0.6,0.1c0.2,0.1,0.3,0.2,0.5,0.3c0.1,0.1,0.2,0.3,0.3,0.5 c0.1,0.2,0.1,0.4,0.1,0.6c0,0.3-0.1,0.6-0.3,1c-0.2,0.4-0.5,0.7-0.9,1.1c-0.4,0.4-0.8,0.7-1.3,1c-0.5,0.3-1,0.6-1.6,0.9 c-0.6,0.3-1.1,0.5-1.7,0.7c-0.6,0.2-1.2,0.3-1.7,0.4c0,0-0.2,0-0.3,0c-0.2,0-0.4-0.1-0.8-0.1c-0.3-0.1-0.7-0.2-1.1-0.3 c-0.4-0.1-0.9-0.3-1.4-0.5c-0.4,0.2-0.8,0.3-1.1,0.3c-0.3,0-0.6,0-0.9-0.1c-0.2-0.1-0.5-0.2-0.6-0.4c-0.2-0.2-0.3-0.4-0.4-0.6 C448.2,110.5,448.2,110.2,448.1,110z"></path> <path fill="#8B191C" d="M478.7,106.4c-0.7,0.7-1.4,1.4-2.1,1.9c-0.3,0.2-0.6,0.5-0.9,0.7s-0.6,0.5-1,0.6c-0.3,0.2-0.6,0.4-0.9,0.5 c-0.3,0.1-0.6,0.2-0.9,0.2c-0.2,0-0.4,0-0.7,0c-0.3,0-0.7-0.1-1-0.3c-0.4-0.2-0.8-0.4-1.2-0.8s-0.8-0.9-1.1-1.5 c-0.4,0.5-0.7,0.9-1.2,1.3s-0.8,0.8-1.3,1.1c-0.5,0.3-0.9,0.6-1.4,0.8c-0.5,0.2-1,0.4-1.5,0.4c-0.7,0.1-1.3,0-1.9-0.3 c-0.5-0.2-1-0.6-1.4-1c-0.4-0.5-0.7-1-0.9-1.6s-0.4-1.2-0.4-1.9c-0.1-0.7-0.1-1.4,0-2.2c0.1-0.7,0.3-1.5,0.6-2.2 c0.3-0.7,0.6-1.5,0.9-2.2c0.3-0.8,0.8-1.5,1.5-2.2c0.6-0.7,1.3-1.2,2-1.6c0.7-0.4,1.5-0.7,2.3-0.8c-0.1-1.4-0.1-2.7,0.1-3.8 c0.2-1.1,0.3-2.3,0.5-3.6c0.2-1.3,0.5-2.4,0.8-3.5s0.8-2,1.3-2.9c0.5-0.8,1.1-1.5,1.7-2c0.6-0.5,1.3-0.8,2-0.9c0.5-0.1,1,0,1.3,0.3 c0.4,0.2,0.7,0.6,1,1c0.3,0.4,0.5,0.9,0.6,1.5c0.2,0.6,0.3,1.2,0.3,1.8c0,0.4,0.1,0.8,0.1,1.2c0.1,1.6,0,3-0.3,4.4 c-0.3,1.4-0.6,2.8-0.9,4.1s-0.7,2.7-1.2,4.1c-0.7,2.1-1.2,3.5-1.4,4.2c0,0.2-0.1,0.4-0.1,0.6s-0.1,0.5-0.1,0.7s0,0.5,0,0.8 c0,0.3,0,0.5,0,0.8c0,0.3,0.1,0.6,0.1,0.9c0.1,0.3,0.2,0.5,0.3,0.7c0.1,0.2,0.2,0.4,0.4,0.5c0.2,0.1,0.3,0.2,0.6,0.1 c0.2,0,0.4-0.1,0.7-0.2c0.2-0.1,0.5-0.2,0.7-0.4c0.3-0.2,0.5-0.4,0.8-0.6c0.3-0.2,0.5-0.4,0.7-0.6c0.6-0.5,1.1-1.1,1.7-1.7 L478.7,106.4z M466.4,97.9c-0.7,0.4-1.3,1-1.8,1.6c-0.5,0.6-0.9,1.4-1.2,2.4c-0.3,1-0.5,1.8-0.6,2.5s-0.2,1.3-0.1,1.9 c0,0.2,0.1,0.3,0.1,0.5s0.2,0.3,0.3,0.4c0.1,0.1,0.3,0.2,0.6,0.3c0.2,0.1,0.6,0.1,0.9,0c0.2,0,0.4-0.1,0.6-0.2 c0.2-0.1,0.4-0.2,0.5-0.4c0.2-0.2,0.3-0.3,0.4-0.5c0.1-0.2,0.3-0.4,0.4-0.6c0.3-0.5,0.5-1,0.7-1.6c0-0.2-0.1-0.4-0.2-0.7 c-0.1-0.3-0.1-0.8-0.2-1.5c-0.1-0.7-0.1-1.2-0.2-1.7c-0.1-0.4-0.1-0.8-0.1-1.2c0-0.4-0.1-0.7-0.1-0.9S466.4,97.9,466.4,97.9z M473,86c0-0.8,0-1.4-0.1-1.8c-0.1-0.6-0.2-1-0.3-1.2c-0.1-0.2-0.3-0.3-0.5-0.3c-0.4,0-0.7,0.3-0.9,0.8c-0.2,0.5-0.4,1.1-0.5,1.8 c-0.1,0.7-0.2,1.5-0.3,2.3c-0.1,0.8-0.2,1.6-0.2,2.4c0,0.8,0,1.5,0,2.1c0,0.6,0,1.1,0,1.3c0,0.5,0,1.1,0,1.6c0,0.5,0,1,0.1,1.4 c0,0.4,0.1,0.8,0.1,1.1c0,0.3,0.1,0.5,0.1,0.7l0,0.2c0.5-1.5,0.9-3,1.2-4.5c0.1-0.6,0.3-1.3,0.4-2c0.1-0.7,0.3-1.4,0.4-2 c0.1-0.7,0.2-1.3,0.3-2C472.9,87.2,473,86.6,473,86z"></path> <path fill="#8B191C" d="M503.7,103.1c-0.2,0.4-0.5,0.8-0.9,1.3c-0.4,0.5-0.8,1-1.3,1.5c-0.5,0.5-1,0.9-1.6,1.3 c-0.6,0.4-1.1,0.6-1.7,0.6c-0.7,0.1-1.3-0.1-1.9-0.5c-0.5-0.4-1-1-1.5-1.9c-0.2,0.3-0.5,0.7-0.9,1c-0.4,0.4-0.7,0.7-1.2,1 c-0.4,0.3-0.9,0.6-1.4,0.8c-0.5,0.2-1,0.3-1.5,0.4c-0.5,0.1-1,0-1.6-0.2s-1-0.4-1.4-0.8s-0.8-0.8-1.1-1.4c-0.3-0.6-0.5-1.2-0.5-1.9 c-0.1-0.8-0.1-1.7,0.1-2.5c0.1-0.9,0.4-1.8,0.8-2.9s0.8-2,1.3-2.7c0.5-0.8,1-1.5,1.6-2.1c0.6-0.6,1.2-1.1,1.9-1.5 c0.7-0.4,1.4-0.6,2.2-0.7c0.3,0,0.5,0,0.6,0.1s0.3,0.2,0.4,0.3c0.1,0.1,0.2,0.2,0.3,0.3c0.1,0.1,0.2,0.2,0.4,0.2 c0.1,0,0.3,0.1,0.4,0.1c0.1,0,0.3,0,0.4,0c0.1,0,0.2,0,0.4,0c0.1,0,0.2,0,0.4,0c0.2,0,0.3,0,0.5,0c0.1,0,0.3,0.1,0.4,0.2 c0.1,0.1,0.2,0.2,0.3,0.4c0.1,0.2,0.1,0.5,0.2,0.8c0.1,0.5,0.1,1.1,0,1.7c0,0.6-0.1,1.3-0.2,2c-0.1,0.7-0.2,1.5-0.2,2.3 s-0.1,1.6,0,2.2c0.1,0.5,0.1,0.9,0.3,1.2c0.1,0.3,0.3,0.4,0.6,0.4c0.2,0,0.5-0.1,0.7-0.2c0.2-0.1,0.5-0.3,0.7-0.5 c0.2-0.2,0.5-0.4,0.7-0.7c0.2-0.3,0.4-0.5,0.7-0.8c0.5-0.6,0.9-1.3,1.4-2.1L503.7,103.1z M489.6,103.3c0,0.3,0.1,0.5,0.1,0.8 c0.1,0.3,0.2,0.5,0.3,0.7s0.3,0.4,0.4,0.5c0.2,0.1,0.4,0.2,0.6,0.1c0.4,0,0.7-0.3,1-0.6c0.3-0.4,0.5-0.8,0.7-1.3 c0.2-0.5,0.3-1,0.4-1.6s0.1-1,0.2-1.3l0.7-5.4c-0.4,0-0.9,0.2-1.3,0.5s-0.8,0.6-1.1,1c-0.3,0.4-0.6,0.9-0.9,1.4 c-0.3,0.5-0.5,1.1-0.7,1.9c-0.2,0.7-0.4,1.4-0.5,1.9C489.5,102.3,489.5,102.8,489.6,103.3z"></path> <path fill="#8B191C" d="M518.1,102.8c0-0.1,0-0.3,0-0.6c0-0.3,0-0.6,0-0.9c0-0.3,0-0.7,0-1.1c0-0.4,0-0.8,0-1.1 c0-0.9,0.1-1.8,0.2-2.9l-0.2,0c-0.1,0.2-0.2,0.4-0.4,0.8s-0.3,0.8-0.6,1.5c-0.2,0.7-0.5,1.5-0.9,2.6c-0.4,1.1-0.9,2.4-1.4,3.9 c-0.2,0.5-0.4,0.8-0.7,1c-0.3,0.2-0.6,0.3-0.9,0.3c-0.4,0-0.8,0-1.1-0.2c-0.3-0.2-0.5-0.4-0.7-0.7c-0.2-0.3-0.3-0.6-0.4-1 c-0.1-0.4-0.2-0.8-0.2-1.2c0-0.4-0.1-1-0.1-1.6s0-1.3,0-2c0-0.7,0.1-1.5,0.1-2.4c0.1-0.9,0.1-1.7,0.2-2.3c0.1-0.7,0.1-1.3,0.2-1.8 c0.1-0.5,0.1-1,0.2-1.4c0.1-0.4,0.1-0.7,0.2-0.9s0.2-0.4,0.3-0.5c0.1-0.1,0.3-0.2,0.4-0.3c0.2-0.1,0.4-0.1,0.7-0.1 c0.4,0,0.7-0.1,1-0.1c0.2,0,0.4,0,0.5,0.1c0.1,0.1,0.2,0.2,0.2,0.4c0,0.2,0.1,0.5,0.1,0.8c0,0.2,0,0.4,0,0.6c0,0.2,0,0.5,0,0.8 c0,0.3,0,0.6,0,0.8c0,0.6,0,0.8,0,0.9c-0.1,0.8-0.1,1.6-0.2,2.5l0.2,0.2c0,0,0.1-0.3,0.3-0.9s0.4-1.1,0.7-1.7 c0.3-0.6,0.5-1.2,0.8-1.8c0.3-0.6,0.6-1.2,0.9-1.7c0.3-0.5,0.6-0.9,0.9-1.2c0.3-0.3,0.7-0.5,1.2-0.6c0.5,0,0.9,0,1.2,0.3 c0.4,0.2,0.6,0.6,0.6,1.1c0,0.4,0.1,0.8,0,1.2c0,0.5,0,0.9-0.1,1.1c0,0.3-0.1,0.7-0.2,1.1c0,0.4-0.1,0.9-0.2,1.6c0,0.1,0,0.3,0,0.5 c0,0.1,0,0.1,0,0.1l0.2,0.2c0,0,0.1-0.3,0.4-0.9s0.5-1.1,0.8-1.7s0.6-1.2,0.9-1.8s0.6-1.2,0.9-1.7c0.3-0.5,0.5-0.9,0.8-1.2 c0.3-0.3,0.7-0.5,1.1-0.6c0.5-0.1,1,0,1.3,0.3c0.4,0.2,0.6,0.6,0.6,1.1c0.1,0.8,0.1,1.5,0.1,2.2c0,0.7,0,1.4-0.1,2.3 S528,96,528,96.7c0,0.7,0,1.4,0.1,2.2c0.1,0.6,0.2,1.1,0.4,1.4c0.2,0.4,0.4,0.5,0.6,0.5c0.2,0,0.5-0.1,0.7-0.2 c0.2-0.1,0.5-0.3,0.7-0.5c0.2-0.2,0.5-0.4,0.7-0.6c0.2-0.2,0.4-0.5,0.7-0.7c0.5-0.6,0.9-1.2,1.4-1.9l0.7,3.8 c-0.4,0.4-0.9,0.8-1.3,1.3c-0.4,0.4-0.9,0.9-1.4,1.2c-0.5,0.4-1,0.7-1.7,1c-0.6,0.3-1.3,0.4-2.1,0.5c-0.4,0-0.7-0.1-1-0.3 c-0.3-0.2-0.5-0.5-0.8-1c-0.2-0.4-0.4-0.9-0.5-1.5c-0.1-0.6-0.2-1.3-0.3-2c-0.1-0.7-0.1-1.4-0.2-2.2c0-0.8,0-1.6,0-2.4l-0.2,0 l-2.4,8.7c-0.2,0.5-0.5,0.8-0.8,1c-0.3,0.2-0.7,0.3-1.2,0.4c-0.3,0-0.6,0-0.9-0.2c-0.2-0.2-0.4-0.4-0.6-0.7 c-0.1-0.3-0.3-0.6-0.3-0.9C518.2,103.4,518.1,103.1,518.1,102.8z"></path> <path fill="#8B191C" d="M543.3,87.8c0,0.3,0.1,0.7,0.1,1.2c0,0.5,0,1.1,0,1.7c-0.1,0.6-0.1,1.3-0.2,2.2c-0.1,0.9-0.1,1.6-0.2,2.1 c0,0.6-0.1,1.1-0.1,1.5c0,0.4,0,0.7,0,0.9c0,0.3,0.1,0.6,0.1,0.8s0.1,0.5,0.2,0.7s0.2,0.3,0.3,0.4c0.1,0.1,0.3,0.1,0.4,0.1 c0.2,0,0.5-0.1,0.9-0.3c0.3-0.2,0.7-0.4,1-0.6s0.7-0.5,1.1-0.8c0.4-0.3,0.7-0.6,1.1-0.9c0.3-0.3,0.6-0.6,0.9-0.9s0.5-0.6,0.6-0.9 c0,0.4,0.1,0.7,0.1,1c0,0.3,0.1,0.6,0.1,0.8c0,0.3,0.1,0.5,0.1,0.8c0,0.3,0.1,0.6,0.1,0.9c-0.2,0.3-0.5,0.5-0.8,0.8 c-0.3,0.3-0.7,0.6-1.1,0.9c-0.4,0.3-0.8,0.6-1.3,0.9c-0.5,0.3-0.9,0.6-1.4,0.8c-0.5,0.2-0.9,0.4-1.4,0.6c-0.5,0.2-0.9,0.3-1.3,0.3 c-0.4,0-0.8,0-1.1-0.1c-0.3-0.1-0.6-0.3-0.8-0.6c-0.2-0.3-0.4-0.6-0.6-1c-0.2-0.4-0.4-0.8-0.5-1.3c-0.3,0.5-0.7,1-1.1,1.5 c-0.4,0.5-0.8,0.9-1.2,1.2c-0.4,0.4-0.8,0.6-1.3,0.9c-0.4,0.2-0.9,0.4-1.3,0.4c-0.4,0-0.7,0-1-0.1c-0.3-0.1-0.6-0.3-0.9-0.5 c-0.3-0.3-0.5-0.6-0.7-1.1c-0.2-0.4-0.3-1-0.4-1.7c-0.1-1.4-0.1-2.5,0-3.3c0.2-1.1,0.3-2.8,0.4-5c0-0.2,0-0.4,0.1-0.7 c0-0.3,0.1-0.6,0.1-0.9c0.1-0.3,0.2-0.7,0.3-1c0.1-0.4,0.3-0.7,0.4-1c0.2-0.3,0.4-0.5,0.7-0.7c0.3-0.2,0.6-0.3,0.9-0.4 c0.6,0,1,0,1.3,0.2c0.3,0.1,0.4,0.3,0.4,0.6c0,0.7-0.1,1.5-0.1,2.1c-0.1,0.7-0.1,1.4-0.2,2.1c-0.1,0.7-0.1,1.5-0.2,2.3 c-0.1,0.9-0.1,1.5-0.2,2.1s-0.1,0.9-0.1,1.2c0,0.3,0,0.5,0,0.5c0,0.2,0.1,0.4,0.1,0.6c0.1,0.2,0.1,0.3,0.2,0.5 c0.1,0.1,0.2,0.2,0.3,0.3c0.1,0.1,0.3,0.1,0.4,0.1c0.2,0,0.5-0.1,0.7-0.3s0.5-0.4,0.6-0.6c0.2-0.2,0.4-0.6,0.5-0.9 c0.1-0.4,0.2-0.8,0.3-1.2l0.9-9.1c0-0.3,0.2-0.5,0.6-0.7c0.4-0.2,0.8-0.3,1.2-0.4c0.5-0.1,1,0,1.3,0.2 C543.1,87.3,543.3,87.5,543.3,87.8z"></path> <path fill="#8B191C" d="M548.1,99.2c-0.1-0.7-0.1-1.5-0.1-2.5c0-0.9,0-2,0-3.1c0-1.1,0.1-2.2,0.1-3.1s0.1-1.7,0.2-2.4 c0.1-0.5,0.3-1,0.6-1.3c0.3-0.4,0.8-0.6,1.3-0.6c0.6-0.1,1,0.1,1.3,0.4c0.3,0.3,0.4,0.8,0.5,1.4c0,0.2,0,0.4,0,0.7 c0,0.3,0,0.6,0,0.9c0,0.3,0,0.7,0,1c0,0.4,0,0.8,0,1.2c0,0.5,0,0.8,0,1c0,0.2,0,0.4,0,0.5l0.3,0c0.1-0.1,0.1-0.3,0.2-0.6 c0.1-0.3,0.2-0.7,0.4-1.2c0.1-0.5,0.3-1,0.5-1.4c0.2-0.4,0.3-0.8,0.5-1.2c0.1-0.4,0.3-0.7,0.4-1c0.1-0.3,0.2-0.5,0.3-0.6 c0.3-0.6,0.6-1.1,1.1-1.3s0.9-0.4,1.4-0.5c0.5-0.1,1,0.1,1.4,0.5s0.6,1,0.7,1.8c0,0.1,0,0.3,0,0.6c0,0.3,0,0.6-0.1,1 c0,0.4-0.1,0.9-0.1,1.5c0,0.6-0.1,1.2-0.1,1.7c0,0.5,0,1,0,1.5c0,0.5,0,0.9,0.1,1.3c0.1,0.7,0.2,1.2,0.4,1.6 c0.2,0.4,0.5,0.6,0.9,0.6c0.1,0,0.3-0.1,0.5-0.2c0.3-0.2,0.6-0.3,0.6-0.4c0.4-0.4,0.7-0.6,0.7-0.6c0,0,0.4-0.2,1-0.8 c0.8-0.6,1.8-1.4,2.9-2.4l0.4,3.6l-0.8,0.7c-0.1,0.1-0.5,0.4-1.4,1c-1.3,0.9-2.1,1.4-2.5,1.6c-0.8,0.5-1.3,0.7-1.5,0.8 c-0.5,0.2-1.1,0.4-1.7,0.4s-1.1-0.3-1.6-1.1c-0.5-0.8-0.8-2.1-1-3.7c-0.1-0.7-0.1-1.4-0.1-2.1c0-0.8,0-1.6,0.1-2.5l-0.3,0l-3.4,8.9 c-0.2,0.5-0.4,0.8-0.6,1c-0.3,0.2-0.6,0.3-0.9,0.3c-0.4,0-0.8,0-1.1-0.2s-0.5-0.4-0.7-0.7c-0.2-0.3-0.3-0.7-0.4-1.1 C548.2,100.1,548.2,99.7,548.1,99.2z"></path> <path fill="#8B191C" d="M568.6,91.5c0.3-0.5,0.7-1.2,1.1-1.8c0.4-0.7,0.8-1.3,1.2-1.9c0.4-0.6,0.8-1.2,1.2-1.9s0.7-1.1,0.9-1.2 c0.3-0.3,0.7-0.5,1.2-0.7c0.5-0.2,1-0.4,1.6-0.4c0.3,0,0.6,0,0.9,0.1c0.3,0.1,0.6,0.3,0.8,0.5c0.2,0.2,0.4,0.5,0.6,0.9 c0.2,0.4,0.3,0.8,0.3,1.2c0,0.5,0,1-0.3,1.7c-0.2,0.7-0.5,1.2-0.8,1.7c-0.3,0.5-0.6,1-0.9,1.5c-0.3,0.5-0.6,1-0.9,1.5 c-0.3,0.5-0.5,1-0.7,1.5c-0.2,0.5-0.2,1-0.2,1.4c0,0.4,0.2,0.7,0.4,0.8c0.2,0.2,0.5,0.2,0.9,0.2c0.2,0,0.4-0.1,0.7-0.3 c0.2-0.2,0.5-0.4,0.7-0.7s0.5-0.6,0.7-0.9c0.2-0.3,0.5-0.7,0.7-1c0.2-0.3,0.4-0.7,0.6-1c0.2-0.3,0.4-0.6,0.5-0.8l1.4,4 c-0.3,0.5-0.7,1-1.1,1.4c-0.5,0.4-1,0.8-1.6,1.2c-0.6,0.4-1.2,0.6-1.8,0.9s-1.2,0.4-1.8,0.4c-0.8,0.1-1.4,0.1-1.9-0.1 c-0.5-0.1-0.9-0.3-1.2-0.6c-0.3-0.3-0.5-0.6-0.7-0.9s-0.2-0.7-0.3-1.1c0-0.3,0-0.6,0-0.9c0-0.4,0.1-0.8,0.2-1.3 c0.1-0.5,0.3-1,0.5-1.6c0.2-0.6,0.6-1.2,1-1.9c0.2-0.2,0.3-0.4,0.5-0.6s0.3-0.3,0.4-0.5c0.1-0.1,0.2-0.3,0.2-0.4 c0.1-0.1,0.1-0.2,0.1-0.4c0-0.2-0.1-0.4-0.2-0.6c-0.1-0.1-0.2-0.2-0.4-0.2c-0.2,0-0.4,0.2-0.7,0.4c-0.3,0.3-0.6,0.7-0.8,1.4 l-3.9,8.8c-0.2,0.4-0.5,0.7-0.7,0.9c-0.2,0.2-0.5,0.3-0.9,0.3c-0.5,0-0.8,0-1.1-0.2c-0.3-0.2-0.5-0.4-0.7-0.7s-0.3-0.7-0.4-1.1 c-0.1-0.4-0.1-0.9-0.2-1.3c-0.1-0.6-0.1-1.5-0.2-2.5c-0.1-1-0.1-2.2-0.2-3.4c0-1.2-0.1-2.6,0-3.9c0-1.4,0-2.7,0.1-4 c0-0.4,0.1-1,0.1-1.6c0.1-0.7,0.1-1.3,0.3-2.1c0.1-0.7,0.3-1.5,0.4-2.3c0.1-0.8,0.3-1.6,0.6-2.4s0.5-1.5,0.9-2.2 c0.3-0.7,0.7-1.3,1.2-1.9c0.4-0.6,1-1,1.5-1.4c0.6-0.4,1.2-0.6,1.9-0.6c0.6-0.1,1,0,1.4,0.1c0.4,0.1,0.7,0.4,0.9,0.7 c0.2,0.3,0.4,0.7,0.6,1.1c0.1,0.4,0.2,0.9,0.3,1.4c0.1,0.9,0.1,1.9,0,3c-0.1,1.1-0.3,2.2-0.6,3.3c-0.2,1.1-0.5,2.2-0.9,3.3 c-0.3,1.1-0.6,2-0.9,2.9c-0.3,0.9-0.6,1.6-0.8,2.2c-0.2,0.6-0.4,1-0.5,1.2l-1.6,3.1L568.6,91.5z M569.9,72.8 c-0.4,0-0.6,0.2-0.9,0.4c-0.2,0.2-0.4,0.6-0.6,1c-0.2,0.4-0.4,0.9-0.5,1.5c-0.2,0.6-0.4,1.3-0.6,2c-0.1,0.6-0.2,1.3-0.3,2 c-0.1,0.7-0.2,1.4-0.2,2c0,0.7-0.1,1.3-0.1,2c0,0.6-0.1,1.2-0.1,1.8c0,1.4,0,2.7,0,4.1c0.2-0.8,0.3-1.6,0.5-2.4 c0.2-0.9,0.4-1.8,0.6-2.6c0.2-0.9,0.4-1.7,0.5-2.4c0.2-0.8,0.3-1.4,0.4-1.9c0.1-0.2,0.1-0.6,0.2-0.9c0.1-0.4,0.2-0.8,0.3-1.2 c0.1-0.4,0.2-0.9,0.4-1.3c0.1-0.5,0.2-0.9,0.3-1.3c0.1-0.4,0.2-0.8,0.2-1.2c0.1-0.4,0.1-0.7,0-0.9 C570.2,72.9,570.1,72.7,569.9,72.8z"></path> <path fill="#8B191C" d="M596.7,93.6c-0.2,0.4-0.5,0.8-0.9,1.3c-0.4,0.5-0.8,1-1.3,1.5c-0.5,0.5-1,0.9-1.6,1.3 c-0.6,0.4-1.1,0.6-1.7,0.6c-0.7,0.1-1.3-0.1-1.9-0.5c-0.5-0.4-1-1-1.5-1.9c-0.2,0.3-0.5,0.7-0.9,1c-0.4,0.4-0.7,0.7-1.2,1 c-0.4,0.3-0.9,0.6-1.4,0.8c-0.5,0.2-1,0.3-1.5,0.4c-0.5,0.1-1,0-1.6-0.2c-0.5-0.2-1-0.4-1.4-0.8s-0.8-0.8-1.1-1.4 c-0.3-0.6-0.5-1.2-0.5-1.9c-0.1-0.8-0.1-1.7,0.1-2.5s0.4-1.8,0.8-2.9c0.4-1,0.8-2,1.3-2.7c0.5-0.8,1-1.5,1.6-2.1 c0.6-0.6,1.2-1.1,1.9-1.5s1.4-0.6,2.2-0.7c0.3,0,0.5,0,0.6,0.1s0.3,0.2,0.4,0.3s0.2,0.2,0.3,0.3c0.1,0.1,0.2,0.2,0.4,0.2 c0.1,0,0.3,0.1,0.4,0.1c0.1,0,0.3,0,0.4,0c0.1,0,0.2,0,0.4,0c0.1,0,0.2,0,0.4,0c0.2,0,0.3,0,0.5,0c0.1,0,0.3,0.1,0.4,0.2 c0.1,0.1,0.2,0.2,0.3,0.4c0.1,0.2,0.1,0.5,0.2,0.8c0.1,0.5,0.1,1.1,0,1.7c0,0.6-0.1,1.3-0.2,2c-0.1,0.7-0.2,1.4-0.2,2.3 c-0.1,0.9-0.1,1.6,0,2.2c0.1,0.5,0.1,0.9,0.3,1.2c0.1,0.3,0.3,0.4,0.6,0.4c0.2,0,0.5-0.1,0.7-0.2c0.2-0.1,0.5-0.3,0.7-0.5 c0.2-0.2,0.5-0.4,0.7-0.7c0.2-0.3,0.4-0.5,0.7-0.8c0.5-0.6,0.9-1.3,1.4-2.1L596.7,93.6z M582.6,93.8c0,0.3,0.1,0.5,0.1,0.8 c0.1,0.3,0.2,0.5,0.3,0.7c0.1,0.2,0.3,0.4,0.4,0.5c0.2,0.1,0.4,0.2,0.6,0.1c0.4,0,0.7-0.3,1-0.6c0.3-0.4,0.5-0.8,0.7-1.3 c0.2-0.5,0.3-1,0.4-1.6c0.1-0.5,0.1-1,0.2-1.3l0.7-5.4c-0.4,0-0.9,0.2-1.3,0.5c-0.4,0.3-0.8,0.6-1.1,1c-0.3,0.4-0.6,0.9-0.9,1.4 c-0.3,0.5-0.5,1.1-0.7,1.9c-0.2,0.7-0.4,1.4-0.5,1.9C582.6,92.8,582.6,93.3,582.6,93.8z M585.8,78.6c0.1-0.1,0.1-0.4,0.2-0.7 s0.2-0.6,0.3-1c0.1-0.4,0.2-0.8,0.4-1.2s0.3-0.9,0.4-1.3c0.3-1,0.7-2.1,1.1-3.3c0.1-0.4,0.3-0.7,0.6-0.9c0.3-0.2,0.6-0.3,0.9-0.3 c0.3,0,0.6,0,0.9,0.1c0.3,0.1,0.6,0.2,0.8,0.4c0.2,0.2,0.4,0.4,0.6,0.6c0.2,0.3,0.3,0.5,0.3,0.9c0.1,0.5-0.1,1.1-0.4,1.6 c-0.2,0.3-0.4,0.6-0.6,1s-0.5,0.8-0.7,1.2c-0.2,0.4-0.5,0.8-0.8,1.2c-0.3,0.4-0.5,0.8-0.7,1.1c-0.2,0.4-0.5,0.7-0.6,1 c-0.2,0.3-0.3,0.5-0.5,0.7c-0.2,0.2-0.3,0.4-0.5,0.5c-0.2,0.1-0.4,0.2-0.5,0.2c-0.3,0-0.5-0.1-0.7-0.2c-0.2-0.2-0.3-0.4-0.4-0.8 c0-0.1,0-0.2,0-0.4C585.7,78.9,585.7,78.7,585.8,78.6z"></path> <path fill="#8B191C" d="M613.9,92.5c-0.7,0.7-1.4,1.4-2.1,1.9c-0.3,0.2-0.6,0.5-0.9,0.7c-0.3,0.2-0.6,0.5-1,0.6 c-0.3,0.2-0.6,0.3-0.9,0.5s-0.6,0.2-0.9,0.2c-0.2,0-0.4,0-0.7,0c-0.3,0-0.7-0.1-1-0.3c-0.4-0.2-0.8-0.4-1.2-0.8s-0.8-0.9-1.1-1.5 c-0.4,0.5-0.7,0.9-1.2,1.3s-0.8,0.8-1.3,1.1c-0.5,0.3-0.9,0.6-1.4,0.8c-0.5,0.2-1,0.4-1.5,0.4c-0.7,0.1-1.3,0-1.9-0.3 c-0.5-0.2-1-0.6-1.4-1c-0.4-0.5-0.7-1-0.9-1.6c-0.2-0.6-0.4-1.2-0.4-1.9c-0.1-0.7-0.1-1.4,0-2.2c0.1-0.7,0.3-1.5,0.6-2.2 c0.3-0.7,0.6-1.5,0.9-2.2s0.8-1.5,1.5-2.2c0.6-0.7,1.3-1.2,2-1.6s1.5-0.7,2.3-0.8c-0.1-1.4-0.1-2.7,0.1-3.8 c0.2-1.1,0.3-2.3,0.5-3.6c0.2-1.3,0.5-2.4,0.8-3.5s0.8-2,1.3-2.9c0.5-0.8,1.1-1.5,1.7-2c0.6-0.5,1.3-0.8,2-0.9c0.5-0.1,1,0,1.3,0.3 c0.4,0.2,0.7,0.6,1,1c0.3,0.4,0.5,0.9,0.6,1.5c0.2,0.6,0.3,1.2,0.3,1.8c0,0.4,0.1,0.8,0.1,1.2c0.1,1.6,0,3-0.3,4.4 c-0.3,1.4-0.6,2.8-0.9,4.1c-0.3,1.4-0.7,2.7-1.2,4.1c-0.7,2.1-1.2,3.5-1.4,4.2c0,0.2-0.1,0.4-0.1,0.6c0,0.2-0.1,0.5-0.1,0.7 c0,0.3,0,0.5,0,0.8c0,0.3,0,0.5,0,0.8c0,0.3,0.1,0.6,0.1,0.9c0.1,0.3,0.2,0.5,0.3,0.7c0.1,0.2,0.2,0.4,0.4,0.5 c0.2,0.1,0.3,0.2,0.6,0.1c0.2,0,0.4-0.1,0.7-0.2c0.2-0.1,0.5-0.2,0.7-0.4c0.3-0.2,0.5-0.4,0.8-0.6c0.3-0.2,0.5-0.4,0.8-0.6 c0.6-0.5,1.1-1.1,1.7-1.7L613.9,92.5z M601.7,84c-0.7,0.4-1.3,1-1.8,1.6c-0.5,0.6-0.9,1.4-1.2,2.4c-0.3,1-0.5,1.8-0.6,2.5 c-0.1,0.7-0.2,1.3-0.1,1.9c0,0.2,0.1,0.3,0.1,0.5c0.1,0.2,0.2,0.3,0.3,0.4c0.1,0.1,0.3,0.2,0.6,0.3c0.2,0.1,0.6,0.1,0.9,0 c0.2,0,0.4-0.1,0.6-0.2c0.2-0.1,0.4-0.2,0.5-0.4c0.2-0.2,0.3-0.3,0.4-0.5c0.1-0.2,0.3-0.4,0.4-0.6c0.3-0.5,0.5-1,0.7-1.6 c0-0.2-0.1-0.4-0.2-0.7c-0.1-0.3-0.1-0.8-0.2-1.5c-0.1-0.7-0.1-1.2-0.2-1.7c-0.1-0.4-0.1-0.8-0.1-1.2c0-0.4-0.1-0.7-0.1-0.9 S601.7,84,601.7,84z M608.2,72.1c0-0.8,0-1.4-0.1-1.8c-0.1-0.6-0.2-1-0.3-1.2c-0.1-0.2-0.3-0.3-0.5-0.3c-0.4,0-0.7,0.3-0.9,0.8 c-0.2,0.5-0.4,1.1-0.5,1.8c-0.1,0.7-0.2,1.5-0.3,2.3c-0.1,0.8-0.2,1.6-0.2,2.4c0,0.8,0,1.5,0,2.1c0,0.6,0,1.1,0,1.3 c0,0.5,0,1.1,0,1.6c0,0.5,0,1,0.1,1.4c0,0.4,0.1,0.8,0.1,1.1c0,0.3,0.1,0.5,0.1,0.7l0,0.2c0.5-1.5,0.9-3,1.2-4.5 c0.1-0.6,0.3-1.3,0.4-2c0.1-0.7,0.3-1.4,0.4-2c0.1-0.7,0.2-1.3,0.3-2C608.2,73.3,608.2,72.7,608.2,72.1z"></path> </g> </svg> 