<?xml version="1.0" encoding="UTF-8"?> <svg xmlns="http://www.w3.org/2000/svg" viewBox="0 0 728.12 115.5"><defs><style>.cls-1{fill:#fcb149;}.cls-2{fill:#7d6a56;}.cls-3{fill:#fff;}</style></defs><title>header-logo</title><g id="Layer_2" data-name="Layer 2"><g id="Layer_1-2" data-name="Layer 1"><rect class="cls-1" x="147.11" y="76.16" width="581" height="39.34"></rect><polygon class="cls-1" points="62.91 4.78 47.18 8.71 86.5 32.3 102.23 28.37 62.91 4.78"></polygon><polygon class="cls-1" points="39.32 10.67 23.59 14.61 62.91 38.2 78.64 34.26 39.32 10.67"></polygon><polygon class="cls-1" points="15.73 16.57 0 20.5 39.32 44.09 55.05 40.16 15.73 16.57"></polygon><polygon class="cls-2" points="84.04 37.46 68.31 41.39 107.63 64.98 123.36 61.05 84.04 37.46"></polygon><polygon class="cls-2" points="60.45 43.36 44.72 47.29 84.04 70.88 99.77 66.95 60.45 43.36"></polygon><polygon class="cls-2" points="36.86 49.25 21.13 53.19 60.45 76.78 76.18 72.84 36.86 49.25"></polygon><path class="cls-2" d="M181.82,56.32l-2.49-6.8H162.16l-2.55,6.8h-13l18.15-42.54h13L195.3,56.32ZM172.6,0l9.59,3.52-9.29,7.4-8-.61Zm-6.92,40.3H176l-5.1-13.9Z"></path><path class="cls-2" d="M226.37,56.32l-5.64-11.47H214V56.32H201.43V13.78h19.85q8.56,0,13.26,3.94t4.7,11.17a16.81,16.81,0,0,1-1.85,8.1,13.71,13.71,0,0,1-5.31,5.43l8.62,13.9ZM214,35.14h7.22a6,6,0,0,0,4.4-1.52,5.85,5.85,0,0,0,1.55-4.37A5.66,5.66,0,0,0,225.67,25a6.1,6.1,0,0,0-4.4-1.49H214Z"></path><path class="cls-2" d="M277.29,13.78h11.53V56.32H278.07l-18-23.67V56.32H248.46V13.78h10.8l18,23.73Z"></path><path class="cls-2" d="M338.46,13.78,323.17,42.85V56.32H310.54V43.09l-15.6-29.31h12.62l9.29,17.36,9-17.36Z"></path><path class="cls-2" d="M344.65,13.78h34.77v9.71H357.27v6.68h20.09v9.71H357.27v6.74H380v9.71H344.65ZM363.83,0l9.59,3.52-9.29,7.4-8-.61Z"></path><path class="cls-2" d="M431.56,56.32H416.44l-10-15.66-4.73,5.22V56.32H389.13V13.78h12.62V30.83L416,13.78h14.57L415.11,31Z"></path><path class="cls-2" d="M469.82,15.84a21.18,21.18,0,0,1,8.31,7.86,21.46,21.46,0,0,1,3,11.26,21.89,21.89,0,0,1-3,11.38,21.24,21.24,0,0,1-8.31,8,25.92,25.92,0,0,1-23.76,0,21.29,21.29,0,0,1-8.28-8,21.88,21.88,0,0,1-3-11.38,21.45,21.45,0,0,1,3-11.26,21.23,21.23,0,0,1,8.28-7.86,26.16,26.16,0,0,1,23.76,0ZM452.95,25a11,11,0,0,0-3.82,4.16A12.12,12.12,0,0,0,447.7,35a12.29,12.29,0,0,0,1.43,5.89,11.16,11.16,0,0,0,3.82,4.22,9.38,9.38,0,0,0,5.19,1.55,9,9,0,0,0,5.07-1.55,10.72,10.72,0,0,0,3.67-4.19A12.94,12.94,0,0,0,468.21,35a12.81,12.81,0,0,0-1.33-5.86A10.58,10.58,0,0,0,463.24,25a9.09,9.09,0,0,0-5.1-1.52A9.53,9.53,0,0,0,452.95,25Z"></path><path class="cls-2" d="M488.91,13.78h12.62v32h17.84V56.32H488.91Z"></path><path class="cls-2" d="M558,56.32l-2.49-6.8H538.3l-2.55,6.8h-13l18.15-42.54h13l17.54,42.54ZM548.74,0l9.59,3.52L549,10.92l-8-.61Zm-6.92,40.3h10.32L547,26.4Z"></path><path class="cls-2" d="M600.63,24.09A21.58,21.58,0,0,0,594,22.7a4.54,4.54,0,0,0-2.58.64,2.09,2.09,0,0,0-.94,1.85,2.9,2.9,0,0,0,1.82,2.64,32.25,32.25,0,0,0,5.77,2,55.64,55.64,0,0,1,7.4,2.58,13.65,13.65,0,0,1,5.07,4,10.88,10.88,0,0,1,2.15,7,12,12,0,0,1-2.34,7.5A14,14,0,0,1,604,55.53,24.78,24.78,0,0,1,595.11,57a34.12,34.12,0,0,1-11-1.85,30.58,30.58,0,0,1-9.5-5.07l4.73-9.59a28.32,28.32,0,0,0,7.86,4.7,21.59,21.59,0,0,0,8,1.91,5.64,5.64,0,0,0,3.22-.79,2.56,2.56,0,0,0,1.15-2.25,2.94,2.94,0,0,0-1.88-2.7,32.19,32.19,0,0,0-5.83-2,53,53,0,0,1-7.34-2.4,13.06,13.06,0,0,1-5-3.85,10.53,10.53,0,0,1-2.12-6.86,12.06,12.06,0,0,1,2.19-7.19,13.79,13.79,0,0,1,6.16-4.7A24.16,24.16,0,0,1,595,12.81a34.23,34.23,0,0,1,9.53,1.37,31.53,31.53,0,0,1,8.25,3.61l-4.67,9.71A40.77,40.77,0,0,0,600.63,24.09Z"></path><path class="cls-2" d="M628.58,47A5.45,5.45,0,0,1,630.19,51a5.51,5.51,0,0,1-5.77,5.77,5.54,5.54,0,0,1-4.1-1.61A5.62,5.62,0,0,1,618.72,51,5.44,5.44,0,0,1,620.33,47a5.6,5.6,0,0,1,4.1-1.58A5.68,5.68,0,0,1,628.58,47Z"></path><path class="cls-2" d="M638.81,13.78h12.62V30.71h15.11V13.78h12.62V56.32H666.54V40.48H651.43V56.32H638.81Z"></path><path class="cls-2" d="M703.38,44.49a6.8,6.8,0,0,0,5.16,2.18,6.4,6.4,0,0,0,5-2.15,8.33,8.33,0,0,0,1.94-5.8V13.78h12.62V38.72a19.16,19.16,0,0,1-2.4,9.74,16.28,16.28,0,0,1-6.83,6.43,22.29,22.29,0,0,1-10.32,2.28,22.8,22.8,0,0,1-10.44-2.28,16.58,16.58,0,0,1-6.95-6.43,18.78,18.78,0,0,1-2.46-9.74V13.78h12.62V38.72A8.05,8.05,0,0,0,703.38,44.49Z"></path><path class="cls-3" d="M173.28,104l-1.55-3.57H164L162.44,104h-2.12l6.53-14.7H169l6.51,14.7Zm-8.5-5.4h6.17l-3.11-7.14ZM169,85l2,.88L168.45,88l-1.66-.21Z"></path><path class="cls-3" d="M193.61,104l-2.92-4.62q-.5,0-.82,0h-3.74V104h-2V89.27h5.75a6.48,6.48,0,0,1,4.32,1.29,4.54,4.54,0,0,1,1.52,3.66,5.21,5.21,0,0,1-.83,3A4.65,4.65,0,0,1,192.5,99l3.42,5Zm-3.74-6.41a4.46,4.46,0,0,0,2.9-.83,3,3,0,0,0,1-2.45,2.87,2.87,0,0,0-1-2.38,4.54,4.54,0,0,0-2.9-.81h-3.74v6.47Z"></path><path class="cls-3" d="M216.27,89.27h2V104h-2l-8.4-11.38V104h-2V89.27h2l8.42,11.4Z"></path><path class="cls-3" d="M240.06,89.27l-5.5,9.66v5h-2V99L227,89.27H229l4.54,7.5,4.45-7.5Z"></path><path class="cls-3" d="M248.73,89.27h10.21v1.83h-8.19v4.54h7.33v1.83h-7.33v4.68h8.44V104H248.73ZM255.16,85l2,.88L254.57,88l-1.66-.21Z"></path><path class="cls-3" d="M281.28,104h-2.44l-5.17-6.78L271,100.12V104h-2V89.27h2v8.25l7.52-8.25h2.42l-5.82,6.34Z"></path><path class="cls-3" d="M300.13,90.13a7.42,7.42,0,0,1,2.8,2.7,7.18,7.18,0,0,1,1,3.77,7.29,7.29,0,0,1-1,3.79,7.45,7.45,0,0,1-2.8,2.73,8.1,8.1,0,0,1-7.79,0,7.44,7.44,0,0,1-2.8-2.73,7.29,7.29,0,0,1-1-3.79,7.18,7.18,0,0,1,1-3.77,7.44,7.44,0,0,1,2.79-2.7,8.2,8.2,0,0,1,7.8,0Zm-6.72,1.58a5.75,5.75,0,0,0-2.09,2,5.42,5.42,0,0,0-.78,2.85,5.47,5.47,0,0,0,.78,2.86,5.8,5.8,0,0,0,2.09,2.07,5.54,5.54,0,0,0,2.85.77,5.44,5.44,0,0,0,2.82-.77,5.77,5.77,0,0,0,2.06-2.07,5.53,5.53,0,0,0,.77-2.86,5.48,5.48,0,0,0-.77-2.85,5.72,5.72,0,0,0-2.06-2,5.49,5.49,0,0,0-2.82-.76A5.6,5.6,0,0,0,293.41,91.7Z"></path><path class="cls-3" d="M313.37,89.27h2v12.87h6.43V104h-8.44Z"></path><path class="cls-3" d="M342,104l-1.55-3.57h-7.75L331.12,104H329l6.53-14.7h2.1l6.51,14.7Zm-8.5-5.4h6.17l-3.11-7.14ZM337.71,85l2,.88L337.12,88l-1.66-.21Z"></path><path class="cls-3" d="M359.1,91.36a7.21,7.21,0,0,0-2-.33,3.74,3.74,0,0,0-2,.49,1.53,1.53,0,0,0-.77,1.35,1.79,1.79,0,0,0,.46,1.27,3.27,3.27,0,0,0,1.13.78q.67.28,1.87.66a21,21,0,0,1,2.42.88,4.17,4.17,0,0,1,1.58,1.25,3.46,3.46,0,0,1,.65,2.19,3.67,3.67,0,0,1-.68,2.21,4.37,4.37,0,0,1-1.91,1.46,7.25,7.25,0,0,1-2.82.51,8.22,8.22,0,0,1-3.15-.63,8.53,8.53,0,0,1-2.65-1.68l.9-1.74a7.57,7.57,0,0,0,2.36,1.58,6.51,6.51,0,0,0,2.55.56,4.08,4.08,0,0,0,2.32-.58,1.8,1.8,0,0,0,.85-1.56,1.83,1.83,0,0,0-.46-1.28,3.26,3.26,0,0,0-1.17-.8,19.9,19.9,0,0,0-1.9-.65,19.38,19.38,0,0,1-2.39-.86,4.14,4.14,0,0,1-1.56-1.24A3.41,3.41,0,0,1,352,93a3.46,3.46,0,0,1,.65-2.08,4.11,4.11,0,0,1,1.83-1.39,7.14,7.14,0,0,1,2.73-.48,8.83,8.83,0,0,1,2.59.39,8.7,8.7,0,0,1,2.26,1l-.84,1.81A8.47,8.47,0,0,0,359.1,91.36Z"></path><path class="cls-3" d="M370.2,89.27h11.49v1.85h-4.75V104h-2V91.11H370.2Z"></path><path class="cls-3" d="M390.5,89.27h10.21v1.83h-8.19v4.54h7.33v1.83h-7.33v4.68H401V104H390.5Z"></path><path class="cls-3" d="M419.42,91.42a5.66,5.66,0,0,0-7.2,2.31,5.65,5.65,0,0,0,4.91,8.49,5.75,5.75,0,0,0,2.27-.47,6.56,6.56,0,0,0,2-1.29l1.22,1.32a8.21,8.21,0,0,1-2.58,1.71,7.71,7.71,0,0,1-6.83-.38,7.42,7.42,0,0,1-3.76-6.52,7.24,7.24,0,0,1,1-3.77,7.36,7.36,0,0,1,2.78-2.7,8,8,0,0,1,6.86-.41,7.34,7.34,0,0,1,2.49,1.63l-1.2,1.45A6.08,6.08,0,0,0,419.42,91.42Z"></path><path class="cls-3" d="M431.91,89.27h2v6.55h8.4V89.27h2V104h-2V97.65h-8.4V104h-2Z"></path><path class="cls-3" d="M465.54,89.27h2V104h-2l-8.4-11.38V104h-2V89.27h2l8.42,11.4Z"></path><path class="cls-3" d="M478.26,89.27h2V104h-2Z"></path><path class="cls-3" d="M503.31,104h-2.44l-5.17-6.78L493,100.12V104h-2V89.27h2v8.25l7.52-8.25h2.42l-5.82,6.34Z"></path><path class="cls-3" d="M523.26,104l-1.55-3.57H514L512.43,104h-2.12l6.53-14.7h2.1l6.51,14.7Zm-8.5-5.4h6.17l-3.11-7.14Z"></path><path class="cls-3" d="M551.42,96a2.16,2.16,0,1,1-2.16-2.16A2.16,2.16,0,0,1,551.42,96Z"></path><path class="cls-3" d="M572.55,89.27h5.36V104h-2V91.09h-3.34Z"></path><path class="cls-3" d="M590.77,102.13a6.45,6.45,0,0,0,1.73.24,3.8,3.8,0,0,0,3.22-1.48,6.54,6.54,0,0,0,1.12-4q0-.4,0-.61a3.82,3.82,0,0,1-1.61,1.85,5.11,5.11,0,0,1-2.61.63,4.66,4.66,0,0,1-3.44-1.26,4.6,4.6,0,0,1-1.26-3.4,5.14,5.14,0,0,1,.63-2.59,4.23,4.23,0,0,1,1.77-1.69,6.27,6.27,0,0,1,5.79.25,5.35,5.35,0,0,1,2,2.44,9.44,9.44,0,0,1,.7,3.82,10.32,10.32,0,0,1-.76,4.09,6.14,6.14,0,0,1-2.16,2.73,5.64,5.64,0,0,1-3.28,1,8.62,8.62,0,0,1-2.18-.3,9.46,9.46,0,0,1-2.06-.79l.8-1.53A6.05,6.05,0,0,0,590.77,102.13Zm-.07-10.36a3,3,0,0,0-.9,2.31,2.9,2.9,0,0,0,.86,2.21,3.22,3.22,0,0,0,2.31.82,3.82,3.82,0,0,0,1.86-.43,3,3,0,0,0,1.26-4.14A2.92,2.92,0,0,0,595,91.38a3.6,3.6,0,0,0-1.87-.45A3.38,3.38,0,0,0,590.69,91.77Z"></path><path class="cls-3" d="M616.71,90.18A3.28,3.28,0,0,1,618,92.92a3.21,3.21,0,0,1-.6,1.92,3.78,3.78,0,0,1-1.67,1.27,4.49,4.49,0,0,1,2.21,1.42,3.55,3.55,0,0,1,.8,2.32,3.68,3.68,0,0,1-1.48,3.09,7.72,7.72,0,0,1-8,0,3.63,3.63,0,0,1-1.48-3.06,3.57,3.57,0,0,1,.82-2.35,4.59,4.59,0,0,1,2.27-1.43,4.16,4.16,0,0,1-1.75-1.31,3.16,3.16,0,0,1-.62-1.94,3.21,3.21,0,0,1,1.28-2.69,6.65,6.65,0,0,1,7,0Zm-6.13,7.54a2.29,2.29,0,0,0-.95,1.94,2.46,2.46,0,0,0,.95,2.06,5.11,5.11,0,0,0,5.28,0,2.43,2.43,0,0,0,1-2,2.31,2.31,0,0,0-1-2,4.36,4.36,0,0,0-2.66-.71A4.31,4.31,0,0,0,610.58,97.72Zm.39-6.44a2.09,2.09,0,0,0-.81,1.74,2.11,2.11,0,0,0,.81,1.76,3.59,3.59,0,0,0,2.26.63,3.55,3.55,0,0,0,2.25-.63,2.12,2.12,0,0,0,.8-1.76,2.1,2.1,0,0,0-.8-1.74,3.55,3.55,0,0,0-2.25-.63A3.59,3.59,0,0,0,611,91.28Z"></path><path class="cls-3" d="M630.46,102.13a6.45,6.45,0,0,0,1.73.24,3.8,3.8,0,0,0,3.22-1.48,6.54,6.54,0,0,0,1.12-4q0-.4,0-.61a3.82,3.82,0,0,1-1.61,1.85,5.11,5.11,0,0,1-2.61.63,4.66,4.66,0,0,1-3.44-1.26,4.6,4.6,0,0,1-1.26-3.4,5.14,5.14,0,0,1,.63-2.59A4.23,4.23,0,0,1,630,89.77a6.27,6.27,0,0,1,5.79.25,5.35,5.35,0,0,1,2,2.44,9.44,9.44,0,0,1,.7,3.82,10.32,10.32,0,0,1-.76,4.09,6.14,6.14,0,0,1-2.16,2.73,5.64,5.64,0,0,1-3.28,1,8.62,8.62,0,0,1-2.18-.3,9.46,9.46,0,0,1-2.06-.79l.8-1.53A6.05,6.05,0,0,0,630.46,102.13Zm-.07-10.36a3,3,0,0,0-.9,2.31,2.9,2.9,0,0,0,.86,2.21,3.22,3.22,0,0,0,2.31.82,3.82,3.82,0,0,0,1.86-.43,3,3,0,0,0,1.26-4.14,2.92,2.92,0,0,0-1.12-1.16,3.6,3.6,0,0,0-1.87-.45A3.38,3.38,0,0,0,630.38,91.77Z"></path><path class="cls-3" d="M670.63,90.13a7.42,7.42,0,0,1,2.8,2.7,7.17,7.17,0,0,1,1,3.77,7.29,7.29,0,0,1-1,3.79,7.45,7.45,0,0,1-2.8,2.73,8.1,8.1,0,0,1-7.79,0,7.44,7.44,0,0,1-2.8-2.73,7.29,7.29,0,0,1-1-3.79,7.17,7.17,0,0,1,1-3.77,7.44,7.44,0,0,1,2.79-2.7,8.2,8.2,0,0,1,7.8,0Zm-6.72,1.58a5.74,5.74,0,0,0-2.09,2A5.41,5.41,0,0,0,661,96.6a5.47,5.47,0,0,0,.78,2.86,5.79,5.79,0,0,0,2.09,2.07,5.55,5.55,0,0,0,2.85.77,5.43,5.43,0,0,0,2.82-.77,5.77,5.77,0,0,0,2.06-2.07,5.53,5.53,0,0,0,.77-2.86,5.48,5.48,0,0,0-.77-2.85,5.72,5.72,0,0,0-2.06-2,5.49,5.49,0,0,0-2.82-.76A5.6,5.6,0,0,0,663.91,91.7Zm4-6.68,2,.88L667.3,88l-1.66-.21Z"></path><path class="cls-3" d="M681.75,89.27h11.49v1.85h-4.75V104h-2V91.11h-4.72Z"></path><path class="cls-3" d="M711.57,104,710,100.4h-7.75L700.73,104h-2.12l6.53-14.7h2.1l6.51,14.7Zm-8.5-5.4h6.17l-3.11-7.14Z"></path></g></g></svg> 