<svg xmlns="http://www.w3.org/2000/svg" viewBox="12614 -8746 200 34.665">
  <defs>
    <style>
      .cls-1 {
        fill: #159f6b;
      }

      .cls-2 {
        fill: #ff6b00;
      }

      .cls-3 {
        fill: #828d92;
      }
    </style>
  </defs>
  <g id="KLSystem_-_Inverse_Logo" data-name="KLSystem - Inverse Logo" transform="translate(12614 -8746)">
    <path id="Path_1" data-name="Path 1" class="cls-1" d="M19,11.351V0h8.043V5.294L19,11.351m0,23.212V22.3l8.043,5.752H45.572v6.516Z" transform="translate(-9.328)"/>
    <path id="Path_2" data-name="Path 2" class="cls-2" d="M0,34.564V0H8.094V14.406L27.284,0H38.941L17.714,16.34,31.1,26.521H18.478L8.094,19.394V34.564H0"/>
    <path id="Path_3" data-name="Path 3" class="cls-3" d="M204.886,4.53H184.83v5.65h11.962v4.429H184.83v6.414h20.056V4.53M178.773,25.91V4.53h-7.788V25.91h-6.007V4.53H134.588v5.548h16.136c2.545,0,4.225.458,5.141,1.273.916.865,1.324,2.494,1.324,4.836v3.563c0,2.342-.458,3.97-1.324,4.836s-2.6,1.273-5.141,1.273H135.81c-2.545,0-4.225-.458-5.141-1.273-.916-.865-1.324-2.494-1.324-4.836V18.478h5.294v2.494H151.9V15.118H135.759c-2.494,0-4.225-.458-5.09-1.273-.865-.865-1.324-2.494-1.324-4.836v-2.9a11.065,11.065,0,0,1,.051-1.323l-8.857,9.366V25.859h-6.058V14.3l-9.163-9.723H84.194V10.13H100.33c2.545,0,4.225.458,5.141,1.273.916.865,1.324,2.494,1.324,4.836V19.8c0,2.342-.458,3.97-1.324,4.836s-2.6,1.273-5.141,1.273H85.416c-2.545,0-4.225-.458-5.141-1.273-.916-.865-1.323-2.494-1.323-4.836V18.529h5.294v2.494H101.45v-5.9H85.314c-2.494,0-4.225-.458-5.09-1.273C79.358,12.98,78.9,11.351,78.9,9.01V6.159c0-2.342.458-3.97,1.324-4.836S82.82.051,85.314.051h23.721l8.908,9.926L126.851,0h82.922L221.99,15.627,233.9,0h4.836V25.91h-5.6V9.926a10.259,10.259,0,0,1,.051-1.171c.051-.458.1-1.018.153-1.578a15.087,15.087,0,0,1-.865,1.629,8.14,8.14,0,0,1-.662,1.069L222.092,22.8H220.87l-9.723-12.98q-.534-.764-.916-1.374a7.249,7.249,0,0,1-.611-1.273c.051.56.1,1.018.1,1.476s.051.865.051,1.273V25.91Z" transform="translate(-38.737)"/>
    <path id="Path_4" data-name="Path 4" class="cls-3" d="M234.258,58.9H236.4l-1.069-1.985L234.258,58.9m-2.189,1.934,2.749-4.785h1.069l2.8,4.785h-1.273l-.56-1.069H233.8l-.56,1.069Zm-5.854,0V56.045h1.12V57.98l2.7-1.934h1.629l-3.207,2.24,3.563,2.6h-1.782l-2.9-2.189v2.189h-1.12Zm-2.087,0h-1.12V56.045h1.12Zm-8.908,0V56.045h.764l3.92,3.207V56.045h1.018V60.83h-.764l-3.92-3.258V60.83Zm-7.839,0V56.045h1.12v1.833h3.512V56.045h1.12V60.83h-1.12V58.794H208.5V60.83Zm-3-3.92h-3.054v3h3.054V59.15h1.12v.56a1.406,1.406,0,0,1-.255.916,1.47,1.47,0,0,1-.967.255h-2.9a1.573,1.573,0,0,1-.967-.255,1.311,1.311,0,0,1-.255-.916V57.165a1.406,1.406,0,0,1,.255-.916,1.375,1.375,0,0,1,.967-.255h2.9a1.47,1.47,0,0,1,.967.255,1.311,1.311,0,0,1,.255.916v.458h-1.12Zm-10.69,3.92V56.045h4.989v.865h-3.818V57.98h2.24v.814h-2.24v1.171h3.869v.916h-5.039Zm-3.716-3.92v3.92h-1.12v-3.92h-2.24v-.865h5.6v.865Zm-5.4,0h-3.512v3h3.512V58.9h-1.833V58.03H185.7v1.68a1.406,1.406,0,0,1-.255.916,1.375,1.375,0,0,1-.967.255h-3.36a1.573,1.573,0,0,1-.967-.255,1.311,1.311,0,0,1-.255-.916V57.165a1.406,1.406,0,0,1,.255-.916c.153-.2.458-.255.967-.255h3.36a1.573,1.573,0,0,1,.967.255,1.251,1.251,0,0,1,.255.865v.153h-1.12v-.356Zm-9.519-1.476,1.069-1.934H177.3l-1.578,1.934Zm-1.68,5.4V56.045h4.989v.865h-3.818V57.98h2.24v.814h-2.24v1.171h3.869v.916h-5.039Zm-6.007,0V56.045h1.12v3.92H172.1v.916H167.37Zm-7.228-3.92h-3.207v1.018h3a1.47,1.47,0,0,1,.967.255,1.311,1.311,0,0,1,.255.916v.662a1.311,1.311,0,0,1-.255.916,1.375,1.375,0,0,1-.967.255h-3a1.47,1.47,0,0,1-.967-.255,1.311,1.311,0,0,1-.255-.916v-.255h1.018v.458h3.411v-1.12h-3a1.47,1.47,0,0,1-.967-.255,1.311,1.311,0,0,1-.255-.916v-.56a1.251,1.251,0,0,1,.255-.865,1.47,1.47,0,0,1,.967-.255h2.749a1.573,1.573,0,0,1,.967.255c.2.153.255.407.255.814v.2h-.967v-.356Zm-9.264-1.476,1.069-1.934h1.171l-1.578,1.934Zm-1.68,5.4V56.045h4.989v.865h-3.818V57.98h2.24v.814h-2.24v1.171h3.869v.916H149.2Zm-5.8-2.036H140.85V57.98h2.545Zm-5.7-1.883v3.92h-1.12v-3.92h-2.24v-.865h5.6v.865Zm-9.417,3.92V56.045h4.989v.865h-3.818V57.98h2.24v.814h-2.24v1.171h3.869v.916h-5.039Zm-7.025,0v-.509l3.411-3.411h-3.054v-.865h4.887V56.5l-3.461,3.411h3.461v.865l-5.243.051Zm-6.363,0V56.045h4.989v.865H116.06V57.98h2.24v.814h-2.24v1.171h3.869v.916h-5.039Zm-4.734,0V58.692l-2.545-2.647h1.527l1.629,1.782,1.68-1.782h1.323l-2.494,2.6V60.83Zm-9.57,0V56.045h.764l3.92,3.207V56.045h1.018V60.83h-.764l-3.92-3.258V60.83Zm-7.076,0V56.045h4.174a1.2,1.2,0,0,1,.814.2,1.007,1.007,0,0,1,.255.713v1.12a1.007,1.007,0,0,1-.255.713,1.2,1.2,0,0,1-.814.2h-.611l2.189,1.833H97.633L95.7,59H94.629V60.83Zm3.665-3.97h-2.6v1.323h2.6a.789.789,0,0,0,.407-.1.43.43,0,0,0,.1-.305v-.56a.43.43,0,0,0-.1-.305C97.531,56.86,97.378,56.86,97.174,56.86Zm-8.959-1.68H87.1V53.907h1.069V55.18Zm1.782,0H88.928V53.907H90Zm-4.429,1.985a1.406,1.406,0,0,1,.255-.916,1.375,1.375,0,0,1,.967-.255h3.563a1.47,1.47,0,0,1,.967.255,1.311,1.311,0,0,1,.255.916V59.71a1.406,1.406,0,0,1-.255.916,1.375,1.375,0,0,1-.967.255H86.79a1.47,1.47,0,0,1-.967-.255,1.311,1.311,0,0,1-.255-.916Zm1.12,2.749H90.4v-3H86.688ZM78.9,60.83V56.045h1.12V57.98l2.7-1.934h1.629l-3.207,2.24,3.563,2.6H82.921l-2.9-2.189v2.189H78.9Z" transform="translate(-38.737 -26.267)"/>
  </g>
</svg>
