<?xml version="1.0" encoding="utf-8"?>
<!-- Generator: Adobe Illustrator 26.3.1, SVG Export Plug-In . SVG Version: 6.00 Build 0)  -->
<svg version="1.1" id="Réteg_1" xmlns="http://www.w3.org/2000/svg" xmlns:xlink="http://www.w3.org/1999/xlink" x="0px" y="0px"
	 viewBox="0 0 841.9 198.4" style="enable-background:new 0 0 841.9 198.4;" xml:space="preserve">
<style type="text/css">
	.st0{fill:url(#SVGID_1_);}
	.st1{fill:#525252;}
	.st2{fill:url(#SVGID_00000049902133852149568550000004546748197049609146_);}
	.st3{fill:#D6374A;}
	.st4{fill:url(#SVGID_00000132061926806722120350000002578533027496065979_);}
	.st5{fill:#FFFFFF;}
	.st6{fill:#FFFFFF;stroke:#EDEDED;stroke-width:0.25;stroke-miterlimit:10;}
	.st7{fill:url(#SVGID_00000044147869094318108910000016478200541896324770_);}
	.st8{fill:url(#SVGID_00000114765846775371399610000015668416017734367911_);}
	.st9{fill:url(#SVGID_00000007416388611980459360000017955482323493288622_);}
	.st10{fill:url(#SVGID_00000052785852014110758180000008440124134799027887_);}
</style>
<g>
	<linearGradient id="SVGID_1_" gradientUnits="userSpaceOnUse" x1="44.3339" y1="139.0589" x2="179.1844" y2="4.2084">
		<stop  offset="0" style="stop-color:#223B81"/>
		<stop  offset="6.202167e-02" style="stop-color:#423C7D"/>
		<stop  offset="0.1979" style="stop-color:#703D72"/>
		<stop  offset="0.3355" style="stop-color:#933D67"/>
		<stop  offset="0.4721" style="stop-color:#AD3C5D"/>
		<stop  offset="0.6075" style="stop-color:#C03A55"/>
		<stop  offset="0.7413" style="stop-color:#CC394F"/>
		<stop  offset="0.873" style="stop-color:#D4384C"/>
		<stop  offset="1" style="stop-color:#D6374A"/>
	</linearGradient>
	<path class="st0" d="M76.9,77.9c0,0-40.2,0-41.6,0c-1.4,0-3.1-0.9-2.6-4c1.2-7.5,3-19.3,3.9-26c1.6-10.3,14.2-17.5,24.5-17.5h76.3
		C126.5,44,114.3,56.7,101,68C97.8,70.7,89.4,77.9,76.9,77.9z M132.3,81.4c-25.4,24.9-45.7,54.8-59,86.6h26.1
		c22.5,0,35.3-10.1,38-30l8.1-57.5c0.3-1.7,1.6-2.8,3.4-2.8h47.4c1.4,0,2.5-0.6,2.7-1.7l6.4-45.8C178.4,43.1,153.9,60.3,132.3,81.4z
		"/>
	<g>
		<path class="st6" d="M653.6,117.3c-1.7,0-24.6,0-24.6,0c-4.1,0-6.8-0.8-8.3-2.5c-1.2-1.3-1.6-3.3-1.2-6.1l5.8-41.3
			c0,0,0.5-2.3-2-2.3c-2,0-9.1,0-11.1,0c-1.9,0-2,1.7-2,1.7l-5.8,41.4c-1.1,7.5,0.3,13.3,3.9,17.5c3.8,4.4,10,6.6,18.4,6.6
			c0,0,23.5,0,25.2,0s2-1.7,2-1.7l1.6-11.1C655.6,119.5,656,117.3,653.6,117.3z"/>
		<path class="st6" d="M359.3,65.1h-8.6c-19.8,0-31.9,11.6-35,33.5c-1.6,11.5,0.1,20.2,5.1,25.9c4.5,5.2,11.6,7.8,21.1,7.8h8.6
			c19.8,0,31.9-11.5,35-33.2c1.6-11.6-0.1-20.4-5.1-26.2C375.7,67.7,368.6,65.1,359.3,65.1z M330.6,99.1c1.9-13.5,7.2-19,18.5-19
			h8.6c5,0,8.5,1.1,10.5,3.4c2.4,2.8,3.1,7.7,2.1,14.9c-1.9,13.5-7,18.8-18.3,18.8h-8.6c-5.2,0-8.6-1.1-10.6-3.4
			C330.3,111.1,329.6,106.3,330.6,99.1z"/>
		<path class="st6" d="M449.9,78.4c0.1-0.6,1.6-11.1,1.6-11.1c0.1-1.2-0.5-2.3-2-2.3c0,0-54,0-55.4,0c-1.6,0-2,1.7-2,1.7l-1.6,11.1
			c0,0-0.3,2.3,2,2.3s19.8,0,19.8,0l-7,49.9c0,0-0.5,2.3,2,2.3s9.4,0,11.2,0s2-1.7,2-1.7l7.1-50.5c0,0,19.1,0,20.4,0
			S449.8,79,449.9,78.4z"/>
		<g>
			<path class="st6" d="M485.4,64c-7.8,0-12.8,2.8-16.2,9.2L439,129.4c0,0-1.5,2.9,1.8,2.9c3.3,0,10.9,0,12.2,0c1.1,0,1.8-1,1.8-1
				l27.2-50.8c0.6-1,1.1-1.2,1.8-1.2c0.7,0,0.7,0.1,0.8,0.6l12.1,50.9c0,0,0.4,1.5,1.9,1.5s9.9,0,12.3,0c2.4,0,1.9-2.5,1.9-2.5
				l-13.5-56.2C497.7,67.1,493.2,64,485.4,64z"/>
			<path class="st6" d="M508.6,82.3c2,0,3.2-0.7,4.1-2.3l7.6-14.1c0,0,0.3-0.7-0.4-0.7s-16.9,0-17.6,0c-0.6,0-0.5,0.6-0.5,0.6
				l3.4,14.1C505.5,81.5,506.7,82.3,508.6,82.3z"/>
		</g>
		<path class="st6" d="M574,117.3c-1.7,0-24.6,0-24.6,0c-4.1,0-6.8-0.8-8.3-2.5c-1.2-1.3-1.6-3.3-1.2-6.1l5.8-41.3
			c0,0,0.5-2.3-2-2.3c-2,0-9.1,0-11.1,0c-1.9,0-2,1.7-2,1.7l-5.8,41.4c-1.1,7.5,0.3,13.3,3.9,17.5c3.8,4.4,10,6.6,18.4,6.6
			c0,0,23.5,0,25.2,0s2-1.7,2-1.7l1.6-11.1C576,119.5,576.4,117.3,574,117.3z"/>
		<path class="st6" d="M727.2,65.1c-1.9,0-9.1,0-10.9,0s-2,1.7-2,1.7l-5.9,42.3c-0.8,5.5-4,8.2-9.8,8.2h-11.2c-2.9,0-5-0.6-6.1-1.9
			c-1-1.2-1.4-3.1-1-5.8l5.9-42.3c0,0,0.4-2.3-2-2.3s-9.4,0-11.2,0s-2,1.7-2,1.7l-6.1,43.1c-1,7.2,0.2,12.8,3.5,16.6
			c3.3,3.8,8.7,5.8,16.1,5.8h13.3c14.6,0,23.3-7.6,25.3-21.9l6.1-43.1C729.1,67.3,729.5,65.1,727.2,65.1z"/>
		<g>
			<path class="st6" d="M744.1,131.7c0,0,64.1-62.7,64.7-63.2c0.6-0.6,1.2-3.4-1.4-3.4c-2.6,0-12.8,0-13.7,0c-0.9,0-1.4,0.6-1.4,0.6
				l-21.9,21.7l-14.8-21.4c0,0-0.5-0.9-1.6-0.9s-9.7,0-13.5,0c-3.8,0-1.6,3.1-1.6,3.1l20.5,28.9c0,0-30.9,30.9-31.7,31.8
				c-0.9,0.9-1.1,3.4,1.4,3.4c2.5,0,13.7,0,13.7,0C743.1,132.3,743.5,132.1,744.1,131.7z"/>
			<path class="st6" d="M800.3,129.2c-0.6-0.8-16.9-23.8-16.9-23.8l-10.8,10.5l10.9,15.6c0,0,0.6,0.9,1.6,0.9c1,0,11.5,0,13.5,0
				S800.9,129.9,800.3,129.2z"/>
		</g>
		<path class="st6" d="M315.9,65.1l-42.3,0c-4.2,0-6.9,1.8-8.9,3.7L253,80.1h25.7l-7,49.9c0,0-0.5,2.3,2,2.3c2.4,0,9.4,0,11.2,0
			s2-1.7,2-1.7l7.1-50.5c0,0,19.6,0,20.4,0s1.8-0.8,2-1.7c0-0.3,1.6-11.1,1.6-11.1C318,66.3,317.4,65.1,315.9,65.1z"/>
	</g>
</g>
</svg>
