<svg xmlns="http://www.w3.org/2000/svg" viewBox="0 0 586.35 105.37"><defs><style>.cls-1{fill:#93875d;}.cls-2{fill:#9fd058;}.cls-3{fill:#2b4135;}</style></defs><title>header-logo_1</title><g id="Layer_2" data-name="Layer 2"><g id="Layer_1-2" data-name="Layer 1"><rect class="cls-1" x="42.13" y="45.17" width="7.09" height="59.44"/><path class="cls-2" d="M62.4,83.92V78A23,23,0,0,0,65,32.07l-3.5-.39,1-3.38a17.48,17.48,0,1,0-33.53,0l1,3.38-3.5.39A23,23,0,0,0,29,78v5.91a29,29,0,0,1-6.43-57.2,23,23,0,0,1-.24-3.34,23.39,23.39,0,1,1,46.78,0,23,23,0,0,1-.24,3.34,29,29,0,0,1-6.43,57.2Z"/><rect class="cls-1" x="45.13" y="55.81" width="19.76" height="4.73" transform="translate(-23.23 41.16) rotate(-34.33)"/><rect class="cls-1" x="36.19" y="57.08" width="4.73" height="20.15" transform="translate(-36.19 46.93) rotate(-45)"/><path class="cls-2" d="M497.15,34.7a2.32,2.32,0,0,1,.25,1.05,2.85,2.85,0,0,1-.15.9A4.7,4.7,0,0,1,495,38.8a7.38,7.38,0,0,1-3.55,1,3.6,3.6,0,0,1-2.2-.6,1.7,1.7,0,0,1-.65-1.5,2.07,2.07,0,0,1,.4-1.25A5.16,5.16,0,0,1,492,34.3l.35-.15a6.5,6.5,0,0,1,2.25-.6h.4a2.42,2.42,0,0,1,1.4.35A2,2,0,0,1,497.15,34.7Z"/><path class="cls-2" d="M517.45,16.07a5.59,5.59,0,0,1,2.63-.7q1.7,0,1.5,1.3l-.2,1.15q-.75,4.26-1.53,7.18a23.56,23.56,0,0,1-2.35,5.68A12.18,12.18,0,0,1,513.37,35a12.45,12.45,0,0,1-6.76,2.1,8.74,8.74,0,0,1-3.83-.85,7.4,7.4,0,0,1-3-2.65,12.37,12.37,0,0,1-2.1-7.11q0-5.41,3.85-12.52a16.77,16.77,0,0,1,2.73-3.9,6,6,0,0,1,3.58-1.75,2.42,2.42,0,0,1,.55,0,3.1,3.1,0,0,1,1.4.3q1.5-3.3,2.3-5a3,3,0,0,1,1.68-1.3,6.5,6.5,0,0,1,2.48-.55q1.5,0,1.5,1a1.9,1.9,0,0,1-.15.6q-3.45,8.41-5.61,13.07a2.91,2.91,0,0,1-1.63,1.35,6.22,6.22,0,0,1-2.48.55,2.91,2.91,0,0,1-1.3-.25.84.84,0,0,1-.5-.8,1.69,1.69,0,0,1,.2-.75l.75-1.7a.87.87,0,0,1-.45-.25l-1,2.35A22.43,22.43,0,0,0,503.76,23a12.9,12.9,0,0,0,.5,6,6.62,6.62,0,0,0,2.05,3.05,3.48,3.48,0,0,0,2.25,1q4.4,0,7.36-15.32A2.61,2.61,0,0,1,517.45,16.07Z"/><path class="cls-2" d="M540.56,11.87a10.7,10.7,0,0,1,2.65,4,13.28,13.28,0,0,1,.9,4.83A17.38,17.38,0,0,1,543,26.74a21.7,21.7,0,0,1-3.15,5.71,16.58,16.58,0,0,1-4.46,4.11,8.65,8.65,0,0,1-4.51,1.4A5.91,5.91,0,0,1,527,36.6a7.68,7.68,0,0,1-2.4-3.91,18.79,18.79,0,0,1-.85-5.86A23.74,23.74,0,0,1,524,23a4.1,4.1,0,0,1-1.05.1q-1.7,0-1.7-1.15a1.77,1.77,0,0,1,.1-.65A22.73,22.73,0,0,1,526.51,13a10.69,10.69,0,0,1,7.88-3.53,14.24,14.24,0,0,1,2,.2A8.48,8.48,0,0,1,540.56,11.87Zm-2.35,9.86a10.72,10.72,0,0,0-.78-4.13A7.1,7.1,0,0,0,535,14.52a3.62,3.62,0,0,0-2.1-.8,3.31,3.31,0,0,0-1,.2.71.71,0,0,1,.45.7,1.62,1.62,0,0,1-.2.7,21.75,21.75,0,0,0-1.8,4.78,21.07,21.07,0,0,0-.65,5.18,17.93,17.93,0,0,0,.9,5.71,10,10,0,0,0,1.25,2.35,2,2,0,0,0,.6.5,9.92,9.92,0,0,0,2.63-2.8,22.46,22.46,0,0,0,2-3.75A14.05,14.05,0,0,0,538.2,21.73Z"/><path class="cls-2" d="M569.09,9.52q.6,6.16,2.15,19.48l.65,5.71q.15,1.1-1.23,2a5.39,5.39,0,0,1-2.88.85,2.91,2.91,0,0,1-1.53-.38,1.38,1.38,0,0,1-.68-1.18q-.65-7-1.5-14.37-1.35,2.9-2.7,5.36a2.37,2.37,0,0,1-.75.8,5,5,0,0,1-1.63,1,5.22,5.22,0,0,1-1.88.38A2,2,0,0,1,555.07,28q-.9-2-1.8-4.31l-.25,1.5q-.65,4.16-1.75,10.71-.15,1.05-1.68,1.83a6.55,6.55,0,0,1-3,.78,2.24,2.24,0,0,1-1.25-.3.88.88,0,0,1-.35-1q2.65-17.52,4.16-25.83a2.9,2.9,0,0,1,1.7-1.85,5.64,5.64,0,0,1,2.85-.75A2.81,2.81,0,0,1,555.1,9a1,1,0,0,1,.68.78,69,69,0,0,0,3.1,10.36q2.15-4.86,4.11-10a2.79,2.79,0,0,1,1.58-1.45,5.9,5.9,0,0,1,2.53-.6q1.5,0,1.8.9A1.94,1.94,0,0,1,569.09,9.52Z"/><path class="cls-3" d="M101.22,54h14V74.41L132.54,54H149.1L130,75.63l19.73,28.73H133L120.3,85.64l-5.11,5.69v13h-14Z"/><path class="cls-3" d="M161,54h40.54V65.84H174.8v7.63H199v11H174.8v8h27.07v11.88H161Z"/><path class="cls-3" d="M216.2,54H240c7.7,0,13,2,16.42,5.47,3,2.88,4.46,6.77,4.46,11.74v.14c0,7.71-4.1,12.82-10.37,15.48l12,17.57H246.44L236.29,89.1h-6.12v15.26h-14Zm23.19,24.19c4.75,0,7.49-2.3,7.49-6V72c0-4-2.88-6-7.56-6h-9.14v12.1Z"/><path class="cls-3" d="M287.48,66.2H272.36V54h44.21V66.2H301.45v38.16h-14Z"/><path class="cls-3" d="M330.17,54h14v50.4h-14Z"/><path class="cls-3" d="M356.81,96.87l7.78-9.29a26,26,0,0,0,16.35,6c3.74,0,5.76-1.3,5.76-3.46V90c0-2.09-1.66-3.24-8.5-4.82-10.73-2.45-19-5.47-19-15.84v-.14c0-9.36,7.42-16.13,19.51-16.13,8.57,0,15.27,2.3,20.74,6.7l-7,9.86a25.28,25.28,0,0,0-14.11-5c-3.38,0-5,1.44-5,3.24v.14c0,2.3,1.73,3.31,8.71,4.9,11.59,2.52,18.79,6.26,18.79,15.7v.14c0,10.3-8.14,16.42-20.38,16.42C371.5,105.22,363,102.42,356.81,96.87Z"/><path class="cls-3" d="M414.77,54h14V72.82h17.93V54h14v50.4h-14V85.21H428.74v19.15h-14Z"/><path class="cls-3" d="M475,79.3v-.14c0-14.47,11.67-26.21,27.22-26.21S529.33,64.54,529.33,79v.14c0,14.47-11.67,26.21-27.22,26.21S475,93.78,475,79.3Zm40,0v-.14c0-7.27-5.26-13.61-13-13.61S489.37,71.74,489.37,79v.14c0,7.27,5.26,13.61,12.89,13.61S515.07,86.58,515.07,79.3Z"/><path class="cls-3" d="M543.8,54h21.6c12.75,0,21,6.55,21,17.71v.14c0,11.88-9.15,18.15-21.67,18.15h-6.91v14.4h-14ZM564.39,79c5,0,8-2.59,8-6.55v-.14c0-4.32-3-6.62-8.06-6.62h-6.55V79Z"/></g></g></svg>